<?xml version="1.0" encoding="UTF-8" standalone="no"?>
<!DOCTYPE svg PUBLIC "-//W3C//DTD SVG 1.1//EN" "http://www.w3.org/Graphics/SVG/1.1/DTD/svg11.dtd">
<svg width="100%" height="100%" viewBox="0 0 1025 1025" version="1.1" xmlns="http://www.w3.org/2000/svg" xmlns:xlink="http://www.w3.org/1999/xlink" xml:space="preserve" xmlns:serif="http://www.serif.com/" style="fill-rule:evenodd;clip-rule:evenodd;stroke-linejoin:round;stroke-miterlimit:2;">
    <g transform="matrix(1,0,0,1,-1652,-1731)">
        <g id="Artboard4" transform="matrix(1.15694,0,0,1.49276,-259.465,-853.097)">
            <rect x="1652.18" y="1731.08" width="885.269" height="686.109" style="fill:none;"/>
            <clipPath id="_clip1">
                <rect x="1652.18" y="1731.08" width="885.269" height="686.109"/>
            </clipPath>
            <g clip-path="url(#_clip1)">
                <g>
                    <g transform="matrix(1.40624,0,0,1.04006,690.469,38.6696)">
                        <path d="M1324.35,1583.04L1324.22,2294.43L619.248,2295.44L619.248,1590.35L1272.87,1541.86C1271.65,1542.7 1291.29,1589.54 1290.05,1590.35C1282.42,1595.23 1241.22,1625.19 1233.57,1629.93C1228.73,1633.13 1223.99,1636.79 1219.13,1639.93C1211.47,1644.68 1204.03,1650.58 1196.35,1655.22C1193.11,1657.04 1190.37,1660.71 1188.9,1664.37C1187.22,1668.52 1187.34,1669.56 1187.56,1672.25C1187.86,1675.95 1190.35,1676.98 1192.55,1678.13C1197.42,1678.36 1202.51,1673.87 1207.66,1670.51C1210.73,1668.51 1295.5,1604.82 1324.35,1583.04ZM897.561,1730.59C897.032,1730.53 896.634,1730.61 896.388,1730.81C896.71,1730.75 897.103,1730.67 897.561,1730.59ZM897.561,1730.59C903.791,1731.19 928.254,1748.78 937.946,1768.82C942.972,1779.21 947.344,1799.83 944.632,1819.79C975.178,1819.91 997.846,1819.7 1028.4,1819.54C1026.88,1813.49 1027.33,1816.52 1025.97,1810.44C1024.75,1801.99 1025.3,1803.54 1025.45,1795.04C1025.74,1786.26 1028.62,1770.4 1032.41,1762.4C1038.1,1750.38 1042.97,1745.11 1051.24,1737.15C1057.13,1731.49 1067.74,1726.5 1074.67,1722.88C1083.52,1720.3 1091.26,1718.52 1100.01,1717.81C1106.32,1717.29 1112.78,1717.26 1119,1718.89C1126.64,1720.88 1133.75,1724.48 1140.67,1728.26C1147.75,1732.05 1153.37,1738.56 1158.94,1744.18C1164.44,1749.61 1168.08,1756.78 1171.58,1763.59C1175.07,1772.91 1178.11,1780.02 1178.62,1790.04C1183.82,1787.57 1187.6,1785.83 1192.17,1782.4C1199.43,1776.93 1193.76,1756.54 1193.06,1754.58C1192.96,1754.14 1171.95,1668.39 1166.9,1664.9C1165.86,1657.37 1100.99,1673.57 1091.59,1676.29C1084,1678.48 1075.28,1681.3 1067.17,1683.73C1059.77,1685.95 1045.4,1689.66 1033.61,1693.79C1028.6,1695.23 1023.39,1695.92 1018.51,1697.81C1007.39,1701.75 995.847,1704.21 984.768,1708.22C980.431,1709.67 966.516,1712.44 964.038,1713.81C956.783,1717.69 948.36,1717.82 940.759,1720.67C935.159,1722.63 905.845,1728.97 897.561,1730.59ZM958.898,1657.88C947.792,1660.92 937.166,1666.7 929.477,1675.46C926.167,1678.69 924.27,1682.99 922.523,1687.2C917.969,1696.26 919.91,1706.72 919.493,1716.49C924.955,1716.3 929.962,1713.88 935.262,1712.82C945.189,1709.45 955.48,1707.34 965.381,1703.87C973.875,1701.62 982.179,1698.69 990.794,1696.89C998.082,1694.59 1005.45,1692.53 1012.74,1690.27C1017.94,1689.26 1022.8,1686.97 1028.07,1686.28C1026.79,1682.27 1024.61,1678.67 1022.67,1674.98C1020.69,1670.99 1012.84,1663.07 1010.41,1661.33C1003.68,1656.53 979.517,1651.81 975.733,1654.24C969.927,1654.29 964.429,1656.35 958.898,1657.88ZM749.613,1787.71C749.421,1796.2 749.989,1801.44 754.91,1809.03C756.616,1812.15 759.455,1814.58 762.26,1816.87C767.034,1820.78 783.024,1819.26 798.3,1819.46C798.5,1819.46 782.717,1772.44 824.568,1743.9C819.431,1744.49 795.491,1748.46 792.248,1748.86C788.779,1749.21 769.487,1752.67 766.313,1753.74C764.157,1754.47 762.076,1755.43 760.542,1757.01C757.816,1759.77 755.603,1759.67 754.471,1763.46C753.21,1767.35 751.902,1771.22 750.636,1775.1C749.362,1779.13 749.69,1783.48 749.613,1787.71ZM921.174,1833.58C921.175,1833.58 921.174,1833.58 921.174,1833.58C921.178,1833.26 921.179,1832.94 921.179,1832.6C921.024,1826.36 924.079,1821.21 924.844,1814.29C925.888,1806.25 925.104,1799.2 923.347,1792.12C920.536,1781.79 915.365,1771.95 907.609,1764.6C902.582,1758.55 895.767,1754.51 888.75,1751.34C879.875,1747.74 870.189,1747.89 860.813,1748.42C849.459,1750.46 838.475,1756.1 831.005,1765.21C823.785,1771.93 818.925,1780.96 816.196,1790.47C814.064,1797 814.032,1804.11 815.282,1810.93C815.931,1817.96 820.918,1826.69 820.668,1833.62C815.799,1833.55 815.191,1833.28 815.272,1833.57C799.201,1833.57 782.624,1833.64 766.725,1833.83C766.713,1861.66 767.074,1891.8 767.062,1919.64C783.157,1919.66 799.241,1919.64 815.336,1919.66C815.491,1951.83 815.241,1983.99 815.467,2016.16C815.765,2041.06 820.816,2067.14 836.125,2087.19C849.909,2105.4 871.139,2116.57 893.156,2120.33C918.853,2124.66 941.478,2122.14 965.972,2112.89C973.716,2110.61 980.817,2106.69 988.072,2103.22C984.224,2075.56 980.388,2047.9 976.528,2020.24C968.343,2024.58 963.672,2028.08 954.451,2028.65C944.742,2029.6 934.21,2026.92 927.348,2019.55C921.486,2013.13 920.557,2003.87 920.45,1995.5C920.402,1970.22 920.426,1944.94 920.438,1919.65L977.147,1919.65C977.159,1891.82 977.585,1861.84 977.573,1834C958.945,1833.99 939.817,1833.6 921.174,1833.58ZM1080.05,1745.82C1065.22,1752.14 1054.66,1765.88 1048.78,1780.78C1046.72,1786.02 1045.85,1792.19 1045.94,1798C1046.08,1804.48 1046.36,1809.69 1047.71,1817.47C1048.65,1822.9 1050.18,1828.87 1053.55,1833.25C1055.49,1835.79 1053.83,1835.06 1051.81,1835.12C1035.7,1835.14 1019.6,1835.12 1003.49,1835.13L1003.49,1918.66C1019.6,1918.75 1035.72,1918.45 1051.82,1918.82C1051.8,1944.37 1051.81,1969.92 1051.81,1995.48C1051.76,2012.29 1051.49,2029.28 1055.03,2045.81C1058.82,2064.86 1067.54,2083.34 1081.89,2096.45C1096.21,2109.92 1115.1,2117.46 1134.24,2120.1C1152.65,2122.59 1171.53,2121.91 1189.66,2117.73C1203.23,2114.37 1209.97,2109.56 1222.36,2102.98C1218.51,2075.32 1214.65,2047.67 1210.8,2020.01C1200.76,2025.37 1195.86,2028.27 1184.48,2027.73C1176.12,2027.25 1167.55,2023.67 1162.33,2016.81C1157.43,2009.97 1156.9,2001.14 1156.85,1992.97C1156.87,1968.2 1156.85,1943.43 1156.87,1918.66C1175.77,1918.64 1194.67,1918.67 1213.58,1918.66C1213.58,1890.82 1213.59,1862.97 1213.58,1835.13C1194.67,1835.12 1173.33,1834.92 1154.43,1834.92C1157.14,1827.42 1158,1822.28 1158.43,1819.86C1158.61,1818.82 1159.96,1813.9 1159.28,1808.48C1160.23,1809.63 1158.94,1794.48 1158.12,1790.68C1155.92,1780.48 1153.91,1773.85 1150.16,1768.22C1147.07,1761.94 1142.04,1757.67 1137.39,1752.65C1127.78,1744.21 1112.75,1740.95 1100.11,1741.61C1093.2,1741.38 1086.23,1742.56 1080.05,1745.82Z" style="fill:#098137;"/>
                    </g>
                </g>
                <g transform="matrix(0.507781,0,0,0.393546,1760.42,2149.84)">
                    <path d="M192.03,262.86C218.76,258.77 246.16,259.35 272.82,263.68C303.99,268.75 332.61,284.19 356.75,304.14C340.56,331.28 324.39,358.43 308.19,385.56C293.2,369.19 271.68,360.03 249.84,357.65C228.39,355.28 205.62,356.87 186.26,367.15C171.84,374.64 160.44,387.52 154.45,402.6C147.29,420.44 146.43,440.37 149.75,459.16C153.14,478.71 164.43,497.07 181.4,507.64C196.07,517.14 213.75,520.86 231.04,521.24C262.31,522.13 293.61,512.16 318.98,493.94C334.04,521.56 349.07,549.19 364.11,576.82C349.56,587.56 333.5,596.19 316.6,602.57C291.69,612.57 264.81,616.88 238.09,617.63C214.41,618.8 190.46,616.84 167.55,610.58C132.33,601.11 99.67,580.64 77.82,551.2C65.06,534.29 55.76,514.83 50.44,494.33C44.83,472.75 43.02,450.24 44.38,428.01C45.82,397.39 54.64,366.95 71,340.94C84.65,318.87 103.78,300.28 125.98,286.88C146.17,274.68 168.77,266.67 192.03,262.86Z" style="fill:#fff;fill-opacity:0.7;fill-rule:nonzero;"/>
                </g>
                <g transform="matrix(0.507781,0,0,0.393546,1766.8,2146.8)">
                    <path d="M703.302,320.579C711.172,320.139 719.302,320.019 726.752,322.979C732.642,325.589 738.362,328.919 742.582,333.899C749.092,339.949 753.432,348.049 755.792,356.559C757.266,362.391 757.925,368.188 757.048,374.809C756.406,380.511 753.842,384.749 753.972,389.889C753.992,407.469 747.388,394.991 753.265,390.694C769.135,390.704 785.438,391.032 801.308,391.042C801.318,413.962 800.96,438.64 800.95,461.56L753.35,461.56C753.34,482.38 753.32,503.19 753.36,524.01C753.45,530.9 754.23,538.52 759.15,543.81C764.91,549.88 773.75,552.08 781.9,551.3C789.64,550.83 793.56,547.946 800.43,544.376C803.67,567.146 806.89,589.926 810.12,612.696C804.03,615.556 798.07,618.776 791.57,620.656C771.01,628.276 752.02,630.35 730.45,626.78C711.97,623.69 694.15,614.49 682.58,599.5C669.73,582.99 665.49,561.52 665.24,541.02C665.05,514.53 665.26,488.05 665.13,461.57C651.62,461.55 638.12,461.57 624.61,461.55C624.62,438.63 624.317,413.816 624.327,390.896C637.672,390.74 651.586,390.685 665.076,390.685C665.009,390.446 665.518,390.665 669.605,390.722C669.815,385.022 665.629,377.833 665.085,372.045C664.035,366.43 664.062,360.579 665.852,355.199C668.142,347.369 672.222,339.939 678.282,334.399C684.552,326.899 693.772,322.259 703.302,320.579Z" style="fill:#fff;fill-opacity:0.7;fill-rule:nonzero;"/>
                </g>
                <g transform="matrix(0.507781,0,0,0.393546,1767.78,2146.8)">
                    <path d="M885.389,318.435C890.579,315.755 896.429,314.785 902.229,314.975C912.839,314.425 925.457,317.113 933.527,324.063C937.427,328.193 941.65,331.709 944.24,336.879C947.387,341.512 949.074,346.977 950.922,355.377C951.609,358.498 952.693,370.973 951.899,370.029C952.471,374.488 951.337,378.539 951.181,379.399C950.82,381.39 950.098,385.619 947.826,391.796C963.686,391.796 981.6,391.96 997.47,391.97C997.48,414.89 997.47,437.82 997.47,460.74C981.6,460.75 965.74,460.73 949.87,460.74C949.86,481.14 949.87,501.53 949.86,521.92C949.9,528.65 950.34,535.92 954.46,541.55C958.84,547.2 966.03,550.15 973.05,550.54C982.6,550.99 986.711,548.6 995.141,544.19C998.371,566.96 1001.61,589.73 1004.84,612.5C994.441,617.92 988.79,621.88 977.4,624.64C962.18,628.08 946.33,628.64 930.88,626.59C914.81,624.42 898.96,618.21 886.94,607.12C874.89,596.33 867.57,581.11 864.39,565.43C861.42,551.82 861.65,537.83 861.69,523.99C861.69,502.95 861.68,481.91 861.7,460.87C848.18,460.57 834.65,460.82 821.13,460.74L821.13,391.97C834.65,391.96 848.17,391.98 861.69,391.96C863.386,391.91 864.779,392.515 863.145,390.425C860.32,386.813 859.034,381.9 858.245,377.432C857.114,371.024 856.883,366.737 856.763,361.397C856.683,356.617 857.415,351.54 859.149,347.225C864.079,334.955 872.949,323.645 885.389,318.435Z" style="fill:#fff;fill-opacity:0.7;fill-rule:nonzero;"/>
                </g>
                <g transform="matrix(0.524663,0,0,0.402485,1749.5,2143.37)">
                    <path d="M1136.65,390.67C1155.08,382.58 1176.04,382.67 1195.39,387.11C1192.08,417.24 1188.79,447.36 1185.46,477.49C1172.91,472.69 1159.43,469.98 1145.97,470.63C1134.9,471.14 1123.44,475.5 1116.52,484.47C1110.84,492.03 1109.68,501.81 1109.65,510.99C1109.64,547.43 1109.66,583.88 1109.64,620.32L1021.49,620.32C1021.47,543.91 1021.49,467.49 1021.48,391.08C1050.87,391.07 1080.26,391.07 1109.65,391.08C1109.65,399 1109.64,406.92 1109.66,414.85C1115.7,404.1 1125.23,395.39 1136.65,390.67Z" style="fill:#fff;fill-opacity:0.7;fill-rule:nonzero;"/>
                </g>
                <g transform="matrix(0.507781,0,0,0.393546,1764.84,2146.8)">
                    <path d="M367.9,391C397.29,390.99 426.68,390.99 456.07,391C456.09,431.66 456.05,472.32 456.09,512.99C456.1,522.33 457.77,532.46 464.45,539.48C471.15,546.57 481.65,548.04 490.94,547.21C500.25,546.43 509.12,540.93 513.49,532.59C518.14,524.22 517.74,514.31 517.8,505.04C517.79,467.03 517.79,429.01 517.79,391C547.18,390.99 576.57,391 605.96,391C605.96,467.41 605.97,543.82 605.96,620.23C580.98,620.24 556,620.23 531.01,620.24C531,612.75 531.02,605.27 531,597.78C518.82,609.77 504.31,620.53 487.31,624.22C473.75,627.09 459.76,627.23 446,626.04C434.66,624.68 423.28,622.19 413.06,616.93C395.74,608.61 382.49,592.93 376.02,574.94C369.23,557.48 367.81,538.51 367.9,519.94C367.91,476.96 367.89,433.98 367.9,391Z" style="fill:#fff;fill-opacity:0.7;fill-rule:nonzero;"/>
                </g>
            </g>
        </g>
    </g>
</svg>
