<?xml version="1.0" encoding="UTF-8" standalone="no"?>
<!DOCTYPE svg PUBLIC "-//W3C//DTD SVG 1.1//EN" "http://www.w3.org/Graphics/SVG/1.1/DTD/svg11.dtd">
<svg width="100%" height="100%" viewBox="0 0 513 513" version="1.1" xmlns="http://www.w3.org/2000/svg" xmlns:xlink="http://www.w3.org/1999/xlink" xml:space="preserve" xmlns:serif="http://www.serif.com/" style="fill-rule:evenodd;clip-rule:evenodd;stroke-linejoin:round;stroke-miterlimit:2;">
    <g transform="matrix(1,0,0,1,0,-735.329)">
        <g id="inverted" transform="matrix(0.92873,0,0,0.941503,775.304,683.495)">
            <rect x="-834.8" y="55.054" width="551.44" height="543.97" style="fill:none;"/>
            <clipPath id="_clip1">
                <rect x="-834.8" y="55.054" width="551.44" height="543.97"/>
            </clipPath>
            <g clip-path="url(#_clip1)">
                <g>
                    <g transform="matrix(1.07674,0,0,1.06213,-834.8,17.608)">
                        <path d="M492.308,15.746L536.959,15.746L536.959,572.926L-40.837,572.926L-40.837,15.746L472.344,15.746C469.882,17.492 467.415,19.213 464.928,20.83C459.03,24.605 453.259,29.016 447.345,32.685C443.601,35.152 439.939,37.983 436.185,40.408C430.267,44.083 424.515,48.644 418.576,52.228C416.073,53.633 413.959,56.474 412.819,59.297C411.524,62.507 411.618,63.307 411.787,65.39C412.02,68.253 413.94,69.044 415.645,69.932C419.41,70.111 423.343,66.642 427.325,64.043C430.348,62.07 465.551,36.555 492.308,15.746ZM187.652,110.476C187.243,110.437 186.935,110.492 186.745,110.649C186.994,110.603 187.298,110.545 187.652,110.476ZM187.652,110.476C192.467,110.94 211.374,124.539 218.865,140.024C222.749,148.054 226.128,163.993 224.032,179.416C247.64,179.51 265.16,179.349 288.777,179.227C287.599,174.552 287.95,176.897 286.9,172.194C285.952,165.66 286.375,166.864 286.495,160.293C286.716,153.506 288.943,141.247 291.871,135.064C296.268,125.777 300.035,121.7 306.425,115.551C310.976,111.171 319.176,107.315 324.535,104.518C331.371,102.528 337.357,101.153 344.12,100.6C348.995,100.201 353.991,100.177 358.797,101.435C364.7,102.975 370.197,105.753 375.546,108.682C381.016,111.611 385.36,116.638 389.669,120.984C393.914,125.18 396.733,130.718 399.431,135.985C402.129,143.185 404.478,148.682 404.874,156.426C408.898,154.521 411.816,153.173 415.351,150.525C420.959,146.292 416.579,130.534 416.038,129.018C415.959,128.681 399.724,62.411 395.819,59.707C395.018,53.891 344.874,66.412 337.609,68.512C331.746,70.207 325.008,72.381 318.738,74.263C313.018,75.98 301.91,78.847 292.804,82.039C288.927,83.147 284.904,83.682 281.128,85.146C272.538,88.188 263.615,90.093 255.052,93.191C251.7,94.308 240.946,96.448 239.031,97.509C233.423,100.513 226.913,100.607 221.039,102.813C216.71,104.325 194.054,109.224 187.652,110.476ZM205.902,190.079C205.9,190.079 205.913,190.075 205.902,190.079C205.905,189.834 205.906,189.582 205.906,189.323C205.786,184.498 208.147,180.52 208.738,175.167C209.545,168.951 208.939,163.51 207.581,158.036C205.408,150.047 201.412,142.444 195.418,136.764C191.532,132.089 186.265,128.963 180.842,126.513C173.982,123.735 166.496,123.847 159.25,124.26C150.475,125.837 141.985,130.193 136.212,137.234C130.632,142.434 126.875,149.409 124.767,156.759C123.119,161.809 123.094,167.301 124.06,172.572C124.562,178.005 128.416,184.755 128.223,190.105C124.459,190.052 123.99,189.846 124.053,190.07C111.631,190.07 98.819,190.122 86.531,190.268C86.522,211.784 86.801,235.077 86.792,256.593C99.232,256.612 111.662,256.593 124.102,256.612C124.222,281.469 124.028,306.327 124.203,331.193C124.433,350.437 128.337,370.592 140.169,386.09C150.823,400.161 167.231,408.798 184.247,411.698C204.108,415.05 221.594,413.103 240.525,405.95C246.51,404.185 251.998,401.162 257.606,398.477C254.632,377.103 251.667,355.719 248.683,334.344C242.358,337.695 238.748,340.402 231.621,340.843C224.117,341.576 215.977,339.51 210.673,333.812C206.143,328.847 205.425,321.693 205.342,315.226C205.305,295.681 205.324,276.147 205.333,256.602L249.162,256.602C249.171,235.087 249.501,211.921 249.491,190.406C235.094,190.396 220.31,190.097 205.902,190.079ZM73.306,154.627C73.158,161.185 73.596,165.242 77.4,171.104C78.718,173.52 80.912,175.391 83.081,177.164C86.771,180.181 99.129,179.009 110.935,179.163C111.09,179.165 98.891,142.827 131.237,120.771C127.266,121.221 108.764,124.294 106.257,124.599C103.576,124.871 88.666,127.542 86.213,128.37C84.547,128.937 82.939,129.682 81.753,130.902C79.646,133.035 77.935,132.955 77.061,135.883C76.086,138.888 75.075,141.879 74.097,144.877C73.112,147.998 73.366,151.356 73.306,154.627ZM328.69,122.248C317.236,127.138 309.069,137.755 304.529,149.274C302.933,153.324 302.258,158.09 302.332,162.577C302.442,167.59 302.655,171.614 303.697,177.63C304.423,181.823 305.607,186.435 308.209,189.826C309.713,191.788 308.431,191.22 306.869,191.267C294.42,191.286 281.971,191.267 269.522,191.277L269.522,255.833C281.971,255.908 294.429,255.673 306.878,255.955C306.86,275.705 306.869,295.456 306.869,315.207C306.832,328.199 306.62,341.332 309.355,354.108C312.283,368.827 319.023,383.114 330.119,393.243C341.186,403.653 355.781,409.483 370.578,411.52C384.804,413.444 399.398,412.919 413.412,409.689C423.9,407.099 429.103,403.381 438.679,398.293C435.705,376.918 432.722,355.543 429.748,334.169C421.986,338.308 418.2,340.552 409.407,340.13C402.943,339.764 396.322,336.995 392.289,331.691C388.496,326.406 388.091,319.581 388.054,313.264C388.063,294.123 388.054,274.983 388.063,255.833C402.676,255.823 417.279,255.842 431.892,255.833C431.892,234.317 431.901,212.792 431.892,191.277C417.279,191.267 400.784,191.114 386.181,191.114C388.273,185.315 388.938,181.345 389.27,179.476C389.414,178.668 390.458,174.866 389.931,170.68C390.662,171.567 389.664,159.855 389.032,156.926C387.33,149.04 385.777,143.91 382.879,139.561C380.494,134.708 376.606,131.407 373.015,127.531C365.584,121.006 353.966,118.483 344.196,119C338.856,118.821 333.469,119.732 328.69,122.248ZM120.278,420.234C112.896,421.443 105.723,423.985 99.316,427.857C92.27,432.109 86.199,438.009 81.867,445.013C76.675,453.268 73.876,462.929 73.419,472.647C72.987,479.702 73.562,486.846 75.342,493.694C77.03,500.2 79.982,506.376 84.032,511.743C90.966,521.086 101.331,527.583 112.509,530.588C119.78,532.575 127.381,533.197 134.896,532.826C143.376,532.588 151.907,531.22 159.812,528.046C165.176,526.021 170.273,523.282 174.89,519.874C170.117,511.105 165.347,502.336 160.568,493.571C152.516,499.353 142.582,502.517 132.658,502.235C127.171,502.114 121.56,500.933 116.904,497.918C111.519,494.564 107.936,488.737 106.86,482.533C105.806,476.569 106.079,470.244 108.351,464.582C110.252,459.796 113.87,455.709 118.447,453.332C124.591,450.069 131.817,449.565 138.625,450.317C145.556,451.072 152.386,453.979 157.143,459.174C162.284,450.564 167.416,441.948 172.554,433.334C164.893,427.003 155.81,422.103 145.918,420.494C137.457,419.12 128.761,418.936 120.278,420.234ZM344.925,435.419C340.977,437.072 338.162,440.661 336.598,444.556C336.047,445.925 335.815,447.536 335.84,449.053C335.878,450.748 335.952,452.109 336.311,454.142C336.561,455.56 336.969,457.119 337.866,458.266C338.384,458.929 337.942,458.737 337.404,458.753C333.113,458.759 328.822,458.753 324.532,458.756L324.532,480.581C328.822,480.607 333.116,480.527 337.407,480.623C337.401,487.3 337.404,493.977 337.404,500.655C337.391,505.047 337.318,509.487 338.261,513.806C339.27,518.783 341.593,523.613 345.418,527.037C349.232,530.557 354.263,532.528 359.363,533.216C364.266,533.867 369.296,533.689 374.126,532.598C377.741,531.722 379.535,530.465 382.835,528.745C381.81,521.518 380.782,514.292 379.757,507.065C377.082,508.465 375.777,509.224 372.746,509.081C370.518,508.957 368.236,508.021 366.846,506.228C365.539,504.441 365.399,502.134 365.386,499.998C365.389,493.527 365.386,487.056 365.389,480.581C370.426,480.578 375.459,480.584 380.496,480.581C380.496,473.307 380.499,466.03 380.496,458.756C375.459,458.753 369.774,458.701 364.741,458.701C365.462,456.741 365.691,455.398 365.805,454.767C365.855,454.493 366.215,453.208 366.033,451.793C366.285,452.092 365.941,448.133 365.723,447.143C365.137,444.477 364.601,442.742 363.603,441.272C362.781,439.631 361.44,438.515 360.203,437.205C357.641,434.999 353.637,434.146 350.27,434.32C348.429,434.26 346.572,434.568 344.925,435.419ZM425.233,458.389C421.488,459.921 418.363,462.748 416.382,466.237C416.376,463.663 416.379,461.093 416.379,458.522C406.742,458.519 397.104,458.519 387.467,458.522C387.47,483.323 387.463,508.127 387.47,532.927L416.376,532.927C416.382,521.1 416.376,509.269 416.379,497.442C416.389,494.462 416.769,491.288 418.632,488.834C420.901,485.922 424.659,484.507 428.289,484.342C432.703,484.131 437.123,485.01 441.238,486.568C442.33,476.789 443.409,467.013 444.495,457.233C438.149,455.792 431.276,455.763 425.233,458.389ZM178.852,458.448C178.849,472.089 178.855,485.729 178.852,499.369C178.824,505.263 179.274,511.283 181.429,516.825C183.483,522.534 187.688,527.51 193.185,530.151C196.428,531.82 200.04,532.61 203.639,533.042C208.006,533.42 212.446,533.375 216.749,532.464C222.144,531.293 226.749,527.878 230.615,524.073C230.621,526.45 230.615,528.824 230.618,531.201C238.549,531.198 246.477,531.201 254.405,531.198C254.408,506.948 254.405,482.698 254.405,458.448C245.077,458.448 235.75,458.445 226.422,458.448C226.422,470.511 226.422,482.578 226.426,494.641C226.406,497.583 226.533,500.728 225.058,503.384C223.671,506.031 220.856,507.776 217.901,508.024C214.953,508.287 211.62,507.821 209.494,505.571C207.374,503.343 206.844,500.128 206.841,497.164C206.828,484.256 206.841,471.352 206.834,458.448C197.507,458.445 188.18,458.445 178.852,458.448ZM302.604,458.351C302.546,463.551 300.544,459.693 302.38,458.351C302.455,458.351 302.529,458.351 302.604,458.351C302.605,458.268 302.605,458.183 302.605,458.096C302.564,456.464 303.377,455.119 303.581,453.31C303.859,451.208 303.65,449.369 303.182,447.518C302.433,444.817 301.056,442.246 298.99,440.326C297.651,438.746 295.835,437.689 293.966,436.861C291.602,435.921 289.022,435.959 286.524,436.099C283.499,436.632 280.573,438.105 278.583,440.485C276.66,442.243 275.365,444.601 274.639,447.086C274.07,448.794 274.062,450.65 274.395,452.432C274.568,454.269 275.896,456.551 275.83,458.36C274.533,458.342 274.371,458.272 274.392,458.348C270.111,458.348 265.695,458.366 261.46,458.415C261.457,465.689 261.553,473.564 261.55,480.838C265.837,480.845 270.122,480.838 274.409,480.845C274.451,489.249 274.384,497.652 274.444,506.059C274.524,512.565 275.869,519.379 279.947,524.619C283.619,529.376 289.275,532.296 295.14,533.277C301.985,534.41 308.012,533.752 314.537,531.333C316.6,530.737 318.492,529.715 320.424,528.807C319.399,521.581 318.377,514.351 317.349,507.125C315.169,508.258 313.925,509.173 311.468,509.322C308.882,509.57 306.076,508.871 304.248,506.945C302.687,505.266 302.439,502.848 302.411,500.661C302.398,494.053 302.404,487.449 302.407,480.842L317.514,480.842C317.517,473.568 317.631,465.736 317.628,458.462C312.665,458.458 307.57,458.357 302.604,458.351ZM235.058,54.286C226.474,56.632 218.262,61.103 212.319,67.871C209.761,70.364 208.294,73.687 206.944,76.942C203.425,83.949 204.924,92.032 204.602,99.584C208.824,99.433 212.694,97.564 216.79,96.747C224.462,94.141 232.416,92.513 240.068,89.832C246.633,88.093 253.051,85.825 259.71,84.436C265.342,82.659 271.035,81.067 276.675,79.316C280.689,78.54 284.449,76.767 288.516,76.231C287.53,73.136 285.841,70.353 284.344,67.496C282.813,64.419 276.748,58.293 274.869,56.952C269.668,53.24 250.994,49.593 248.069,51.474C243.582,51.506 239.332,53.099 235.058,54.286Z" style="fill:white;"/>
                    </g>
                </g>
            </g>
        </g>
    </g>
</svg>
