<?xml version="1.0" encoding="UTF-8" standalone="no"?>
<!DOCTYPE svg PUBLIC "-//W3C//DTD SVG 1.1//EN" "http://www.w3.org/Graphics/SVG/1.1/DTD/svg11.dtd">
<svg width="100%" height="100%" viewBox="0 0 1025 1025" version="1.1" xmlns="http://www.w3.org/2000/svg" xmlns:xlink="http://www.w3.org/1999/xlink" xml:space="preserve" xmlns:serif="http://www.serif.com/" style="fill-rule:evenodd;clip-rule:evenodd;stroke-linejoin:round;stroke-miterlimit:2;">
    <g transform="matrix(1,0,0,1,-1652,-1731)">
        <g id="Artboard4" transform="matrix(1.15694,0,0,1.49276,-259.465,-853.097)">
            <rect x="1652.18" y="1731.08" width="885.269" height="686.109" style="fill:none;"/>
            <clipPath id="_clip1">
                <rect x="1652.18" y="1731.08" width="885.269" height="686.109"/>
            </clipPath>
            <g clip-path="url(#_clip1)">
                <g>
                    <g transform="matrix(1.13302,0,0,1.13302,-184.183,-159.356)">
                        <g transform="matrix(1.53421,0,0,1.18906,1600.23,794.38)">
                            <path d="M337.609,768.585C344.874,766.485 395.018,753.965 395.819,759.781C399.724,762.484 415.959,828.754 416.038,829.091C416.579,830.607 420.959,846.365 415.351,850.599C411.816,853.246 408.898,854.594 404.874,856.5C404.478,848.755 402.129,843.258 399.431,836.058C396.733,830.792 393.914,825.253 389.669,821.057C385.36,816.711 381.016,811.684 375.546,808.756C370.197,805.827 364.7,803.048 358.797,801.509C353.991,800.251 348.995,800.275 344.12,800.673C337.357,801.226 331.371,802.602 324.535,804.591C319.176,807.388 310.976,811.245 306.425,815.625C300.035,821.774 296.268,825.85 291.871,835.138C288.943,841.32 286.716,853.58 286.495,860.367C286.375,866.938 285.952,865.733 286.9,872.267C287.95,876.97 287.599,874.625 288.777,879.3C265.16,879.422 247.64,879.584 224.032,879.49C226.128,864.066 222.749,848.127 218.865,840.097C210.738,823.297 189.174,808.718 186.745,810.722C191.497,809.849 216.471,804.482 221.039,802.886C226.913,800.68 233.423,800.586 239.031,797.583C240.946,796.522 251.7,794.382 255.052,793.264C263.615,790.167 272.538,788.261 281.128,785.22C284.904,783.755 288.927,783.22 292.804,782.112C301.91,778.921 313.018,776.054 318.738,774.337C325.008,772.454 331.746,770.28 337.609,768.585ZM504.791,693.857C509.246,691.121 516.442,685.541 518.251,686.09C519.539,686.481 521.56,687.397 522.599,688.925C525.451,693.119 432.328,760.851 427.325,764.117C423.343,766.715 419.41,770.185 415.645,770.005C413.94,769.117 412.02,768.326 411.787,765.463C411.618,763.38 411.524,762.58 412.819,759.37C413.959,756.547 416.073,753.706 418.576,752.301C424.515,748.717 430.267,744.156 436.185,740.481C439.939,738.056 443.601,735.225 447.345,732.759C453.259,729.089 459.03,724.678 464.928,720.903C468.525,718.565 472.079,716.008 475.64,713.473C478.586,711.686 488.22,705.183 490.399,703.49C495.261,700.612 499.942,696.829 504.791,693.857ZM235.058,754.359C239.332,753.172 243.582,751.579 248.069,751.547C250.994,749.666 269.668,753.313 274.869,757.025C276.748,758.367 282.813,764.492 284.344,767.569C285.841,770.427 287.53,773.209 288.516,776.304C284.449,776.84 280.689,778.613 276.675,779.39C271.035,781.14 265.342,782.732 259.71,784.51C253.051,785.898 246.633,788.166 240.068,789.905C232.416,792.586 224.462,794.215 216.79,796.82C212.694,797.637 208.824,799.506 204.602,799.657C204.924,792.105 203.425,784.023 206.944,777.016C208.294,773.761 209.761,770.438 212.319,767.944C218.262,761.176 226.474,756.706 235.058,754.359ZM73.306,854.7C73.366,851.429 73.112,848.072 74.097,844.95C75.075,841.953 76.086,838.961 77.061,835.957C77.935,833.028 79.646,833.108 81.753,830.975C82.939,829.755 84.547,829.01 86.213,828.443C88.666,827.616 103.576,824.944 106.257,824.673C108.764,824.368 127.266,821.295 131.237,820.844C98.891,842.9 111.09,879.239 110.935,879.237C99.129,879.083 86.771,880.255 83.081,877.237C80.912,875.464 78.718,873.593 77.4,871.177C73.596,865.315 73.158,861.259 73.306,854.7ZM159.25,824.334C166.496,823.921 173.982,823.808 180.842,826.587C186.265,829.037 191.532,832.163 195.418,836.838C201.412,842.517 205.408,850.121 207.581,858.109C208.939,863.583 209.545,869.025 208.738,875.241C208.147,880.593 205.786,884.572 205.906,889.397C205.353,890.061 234.879,890.47 249.491,890.479C249.501,911.995 249.171,935.16 249.162,956.676L205.333,956.676C205.324,976.22 205.305,995.755 205.342,1015.3C205.425,1021.77 206.143,1028.92 210.673,1033.89C215.977,1039.58 224.117,1041.65 231.621,1040.92C238.748,1040.48 242.358,1037.77 248.683,1034.42C251.667,1055.79 254.632,1077.18 257.606,1098.55C251.998,1101.24 246.51,1104.26 240.525,1106.02C221.594,1113.18 204.108,1115.12 184.247,1111.77C167.231,1108.87 150.823,1100.24 140.169,1086.16C128.337,1070.66 124.433,1050.51 124.203,1031.27C124.028,1006.4 124.222,981.542 124.102,956.685C111.662,956.666 99.232,956.685 86.792,956.666C86.801,935.151 86.522,911.857 86.531,890.341C98.819,890.195 111.631,890.143 124.053,890.143C123.99,889.92 124.459,890.125 128.223,890.179C128.416,884.828 124.562,878.079 124.06,872.646C123.094,867.374 123.119,861.883 124.767,856.832C126.875,849.482 130.632,842.507 136.212,837.307C141.985,830.267 150.475,825.911 159.25,824.334ZM328.69,822.321C333.469,819.805 338.856,818.895 344.196,819.073C353.966,818.557 365.584,821.08 373.015,827.604C376.606,831.481 380.494,834.781 382.879,839.634C385.777,843.984 387.33,849.114 389.032,856.999C389.664,859.929 390.662,871.64 389.931,870.753C390.458,874.939 389.414,878.742 389.27,879.55C388.938,881.419 388.273,885.388 386.181,891.187C400.784,891.187 417.279,891.341 431.892,891.35C431.901,912.865 431.892,934.39 431.892,955.906C417.279,955.915 402.676,955.897 388.063,955.906C388.054,975.056 388.063,994.196 388.054,1013.34C388.091,1019.65 388.496,1026.48 392.289,1031.76C396.322,1037.07 402.943,1039.84 409.407,1040.2C418.2,1040.63 421.986,1038.38 429.748,1034.24C432.722,1055.62 435.705,1076.99 438.679,1098.37C429.103,1103.45 423.9,1107.17 413.412,1109.76C399.398,1112.99 384.804,1113.52 370.578,1111.59C355.781,1109.56 341.186,1103.73 330.119,1093.32C319.023,1083.19 312.283,1068.9 309.355,1054.18C306.62,1041.4 306.832,1028.27 306.869,1015.28C306.869,995.529 306.86,975.779 306.878,956.028C294.429,955.746 281.971,955.981 269.522,955.906L269.522,891.35C281.971,891.341 294.42,891.359 306.869,891.341C308.431,891.294 309.713,891.861 308.209,889.9C305.607,886.508 304.423,881.897 303.697,877.703C302.655,871.688 302.442,867.663 302.332,862.651C302.258,858.164 302.933,853.397 304.529,849.347C309.069,837.829 317.236,827.212 328.69,822.321Z" style="fill:rgb(36,159,84);"/>
                        </g>
                        <g transform="matrix(1.53421,0,0,1.18906,1600.23,794.38)">
                            <path d="M337.609,768.585C344.874,766.485 395.018,753.965 395.819,759.781C399.724,762.484 415.959,828.754 416.038,829.091C416.579,830.607 420.959,846.365 415.351,850.599C411.816,853.246 408.898,854.594 404.874,856.5C404.478,848.755 402.129,843.258 399.431,836.058C396.733,830.792 393.914,825.253 389.669,821.057C385.36,816.711 381.016,811.684 375.546,808.756C370.197,805.827 364.7,803.048 358.797,801.509C353.991,800.251 348.995,800.275 344.12,800.673C337.357,801.226 331.371,802.602 324.535,804.591C319.176,807.388 310.976,811.245 306.425,815.625C300.035,821.774 296.268,825.85 291.871,835.138C288.943,841.32 286.716,853.58 286.495,860.367C286.375,866.938 285.952,865.733 286.9,872.267C287.95,876.97 287.599,874.625 288.777,879.3C265.16,879.422 247.64,879.584 224.032,879.49C226.128,864.066 222.749,848.127 218.865,840.097C210.738,823.297 189.174,808.718 186.745,810.722C191.497,809.849 216.471,804.482 221.039,802.886C226.913,800.68 233.423,800.586 239.031,797.583C240.946,796.522 251.7,794.382 255.052,793.264C263.615,790.167 272.538,788.261 281.128,785.22C284.904,783.755 288.927,783.22 292.804,782.112C301.91,778.921 313.018,776.054 318.738,774.337C325.008,772.454 331.746,770.28 337.609,768.585ZM504.791,693.857C509.246,691.121 516.442,685.541 518.251,686.09C519.539,686.481 521.56,687.397 522.599,688.925C525.451,693.119 432.328,760.851 427.325,764.117C423.343,766.715 419.41,770.185 415.645,770.005C413.94,769.117 412.02,768.326 411.787,765.463C411.618,763.38 411.524,762.58 412.819,759.37C413.959,756.547 416.073,753.706 418.576,752.301C424.515,748.717 430.267,744.156 436.185,740.481C439.939,738.056 443.601,735.225 447.345,732.759C453.259,729.089 459.03,724.678 464.928,720.903C468.525,718.565 472.079,716.008 475.64,713.473C478.586,711.686 488.22,705.183 490.399,703.49C495.261,700.612 499.942,696.829 504.791,693.857ZM235.058,754.359C239.332,753.172 243.582,751.579 248.069,751.547C250.994,749.666 269.668,753.313 274.869,757.025C276.748,758.367 282.813,764.492 284.344,767.569C285.841,770.427 287.53,773.209 288.516,776.304C284.449,776.84 280.689,778.613 276.675,779.39C271.035,781.14 265.342,782.732 259.71,784.51C253.051,785.898 246.633,788.166 240.068,789.905C232.416,792.586 224.462,794.215 216.79,796.82C212.694,797.637 208.824,799.506 204.602,799.657C204.924,792.105 203.425,784.023 206.944,777.016C208.294,773.761 209.761,770.438 212.319,767.944C218.262,761.176 226.474,756.706 235.058,754.359ZM73.306,854.7C73.366,851.429 73.112,848.072 74.097,844.95C75.075,841.953 76.086,838.961 77.061,835.957C77.935,833.028 79.646,833.108 81.753,830.975C82.939,829.755 84.547,829.01 86.213,828.443C88.666,827.616 103.576,824.944 106.257,824.673C108.764,824.368 127.266,821.295 131.237,820.844C98.891,842.9 111.09,879.239 110.935,879.237C99.129,879.083 86.771,880.255 83.081,877.237C80.912,875.464 78.718,873.593 77.4,871.177C73.596,865.315 73.158,861.259 73.306,854.7ZM159.25,824.334C166.496,823.921 173.982,823.808 180.842,826.587C186.265,829.037 191.532,832.163 195.418,836.838C201.412,842.517 205.408,850.121 207.581,858.109C208.939,863.583 209.545,869.025 208.738,875.241C208.147,880.593 205.786,884.572 205.906,889.397C205.353,890.061 234.879,890.47 249.491,890.479C249.501,911.995 249.171,935.16 249.162,956.676L205.333,956.676C205.324,976.22 205.305,995.755 205.342,1015.3C205.425,1021.77 206.143,1028.92 210.673,1033.89C215.977,1039.58 224.117,1041.65 231.621,1040.92C238.748,1040.48 242.358,1037.77 248.683,1034.42C251.667,1055.79 254.632,1077.18 257.606,1098.55C251.998,1101.24 246.51,1104.26 240.525,1106.02C221.594,1113.18 204.108,1115.12 184.247,1111.77C167.231,1108.87 150.823,1100.24 140.169,1086.16C128.337,1070.66 124.433,1050.51 124.203,1031.27C124.028,1006.4 124.222,981.542 124.102,956.685C111.662,956.666 99.232,956.685 86.792,956.666C86.801,935.151 86.522,911.857 86.531,890.341C98.819,890.195 111.631,890.143 124.053,890.143C123.99,889.92 124.459,890.125 128.223,890.179C128.416,884.828 124.562,878.079 124.06,872.646C123.094,867.374 123.119,861.883 124.767,856.832C126.875,849.482 130.632,842.507 136.212,837.307C141.985,830.267 150.475,825.911 159.25,824.334ZM328.69,822.321C333.469,819.805 338.856,818.895 344.196,819.073C353.966,818.557 365.584,821.08 373.015,827.604C376.606,831.481 380.494,834.781 382.879,839.634C385.777,843.984 387.33,849.114 389.032,856.999C389.664,859.929 390.662,871.64 389.931,870.753C390.458,874.939 389.414,878.742 389.27,879.55C388.938,881.419 388.273,885.388 386.181,891.187C400.784,891.187 417.279,891.341 431.892,891.35C431.901,912.865 431.892,934.39 431.892,955.906C417.279,955.915 402.676,955.897 388.063,955.906C388.054,975.056 388.063,994.196 388.054,1013.34C388.091,1019.65 388.496,1026.48 392.289,1031.76C396.322,1037.07 402.943,1039.84 409.407,1040.2C418.2,1040.63 421.986,1038.38 429.748,1034.24C432.722,1055.62 435.705,1076.99 438.679,1098.37C429.103,1103.45 423.9,1107.17 413.412,1109.76C399.398,1112.99 384.804,1113.52 370.578,1111.59C355.781,1109.56 341.186,1103.73 330.119,1093.32C319.023,1083.19 312.283,1068.9 309.355,1054.18C306.62,1041.4 306.832,1028.27 306.869,1015.28C306.869,995.529 306.86,975.779 306.878,956.028C294.429,955.746 281.971,955.981 269.522,955.906L269.522,891.35C281.971,891.341 294.42,891.359 306.869,891.341C308.431,891.294 309.713,891.861 308.209,889.9C305.607,886.508 304.423,881.897 303.697,877.703C302.655,871.688 302.442,867.663 302.332,862.651C302.258,858.164 302.933,853.397 304.529,849.347C309.069,837.829 317.236,827.212 328.69,822.321Z" style="fill:rgb(36,159,84);"/>
                        </g>
                        <g transform="matrix(1.53421,0,0,1.18906,1600.23,794.38)">
                            <path d="M337.609,768.585C344.874,766.485 395.018,753.965 395.819,759.781C399.724,762.484 415.959,828.754 416.038,829.091C416.579,830.607 420.959,846.365 415.351,850.599C411.816,853.246 408.898,854.594 404.874,856.5C404.478,848.755 402.129,843.258 399.431,836.058C396.733,830.792 393.914,825.253 389.669,821.057C385.36,816.711 381.016,811.684 375.546,808.756C370.197,805.827 364.7,803.048 358.797,801.509C353.991,800.251 348.995,800.275 344.12,800.673C337.357,801.226 331.371,802.602 324.535,804.591C319.176,807.388 310.976,811.245 306.425,815.625C300.035,821.774 296.268,825.85 291.871,835.138C288.943,841.32 286.716,853.58 286.495,860.367C286.375,866.938 285.952,865.733 286.9,872.267C287.95,876.97 287.599,874.625 288.777,879.3C265.16,879.422 247.64,879.584 224.032,879.49C226.128,864.066 222.749,848.127 218.865,840.097C210.738,823.297 189.174,808.718 186.745,810.722C191.497,809.849 216.471,804.482 221.039,802.886C226.913,800.68 233.423,800.586 239.031,797.583C240.946,796.522 251.7,794.382 255.052,793.264C263.615,790.167 272.538,788.261 281.128,785.22C284.904,783.755 288.927,783.22 292.804,782.112C301.91,778.921 313.018,776.054 318.738,774.337C325.008,772.454 331.746,770.28 337.609,768.585ZM504.791,693.857C509.246,691.121 516.442,685.541 518.251,686.09C519.539,686.481 521.56,687.397 522.599,688.925C525.451,693.119 432.328,760.851 427.325,764.117C423.343,766.715 419.41,770.185 415.645,770.005C413.94,769.117 412.02,768.326 411.787,765.463C411.618,763.38 411.524,762.58 412.819,759.37C413.959,756.547 416.073,753.706 418.576,752.301C424.515,748.717 430.267,744.156 436.185,740.481C439.939,738.056 443.601,735.225 447.345,732.759C453.259,729.089 459.03,724.678 464.928,720.903C468.525,718.565 472.079,716.008 475.64,713.473C478.586,711.686 488.22,705.183 490.399,703.49C495.261,700.612 499.942,696.829 504.791,693.857ZM235.058,754.359C239.332,753.172 243.582,751.579 248.069,751.547C250.994,749.666 269.668,753.313 274.869,757.025C276.748,758.367 282.813,764.492 284.344,767.569C285.841,770.427 287.53,773.209 288.516,776.304C284.449,776.84 280.689,778.613 276.675,779.39C271.035,781.14 265.342,782.732 259.71,784.51C253.051,785.898 246.633,788.166 240.068,789.905C232.416,792.586 224.462,794.215 216.79,796.82C212.694,797.637 208.824,799.506 204.602,799.657C204.924,792.105 203.425,784.023 206.944,777.016C208.294,773.761 209.761,770.438 212.319,767.944C218.262,761.176 226.474,756.706 235.058,754.359ZM73.306,854.7C73.366,851.429 73.112,848.072 74.097,844.95C75.075,841.953 76.086,838.961 77.061,835.957C77.935,833.028 79.646,833.108 81.753,830.975C82.939,829.755 84.547,829.01 86.213,828.443C88.666,827.616 103.576,824.944 106.257,824.673C108.764,824.368 127.266,821.295 131.237,820.844C98.891,842.9 111.09,879.239 110.935,879.237C99.129,879.083 86.771,880.255 83.081,877.237C80.912,875.464 78.718,873.593 77.4,871.177C73.596,865.315 73.158,861.259 73.306,854.7ZM159.25,824.334C166.496,823.921 173.982,823.808 180.842,826.587C186.265,829.037 191.532,832.163 195.418,836.838C201.412,842.517 205.408,850.121 207.581,858.109C208.939,863.583 209.545,869.025 208.738,875.241C208.147,880.593 205.786,884.572 205.906,889.397C205.353,890.061 234.879,890.47 249.491,890.479C249.501,911.995 249.171,935.16 249.162,956.676L205.333,956.676C205.324,976.22 205.305,995.755 205.342,1015.3C205.425,1021.77 206.143,1028.92 210.673,1033.89C215.977,1039.58 224.117,1041.65 231.621,1040.92C238.748,1040.48 242.358,1037.77 248.683,1034.42C251.667,1055.79 254.632,1077.18 257.606,1098.55C251.998,1101.24 246.51,1104.26 240.525,1106.02C221.594,1113.18 204.108,1115.12 184.247,1111.77C167.231,1108.87 150.823,1100.24 140.169,1086.16C128.337,1070.66 124.433,1050.51 124.203,1031.27C124.028,1006.4 124.222,981.542 124.102,956.685C111.662,956.666 99.232,956.685 86.792,956.666C86.801,935.151 86.522,911.857 86.531,890.341C98.819,890.195 111.631,890.143 124.053,890.143C123.99,889.92 124.459,890.125 128.223,890.179C128.416,884.828 124.562,878.079 124.06,872.646C123.094,867.374 123.119,861.883 124.767,856.832C126.875,849.482 130.632,842.507 136.212,837.307C141.985,830.267 150.475,825.911 159.25,824.334ZM328.69,822.321C333.469,819.805 338.856,818.895 344.196,819.073C353.966,818.557 365.584,821.08 373.015,827.604C376.606,831.481 380.494,834.781 382.879,839.634C385.777,843.984 387.33,849.114 389.032,856.999C389.664,859.929 390.662,871.64 389.931,870.753C390.458,874.939 389.414,878.742 389.27,879.55C388.938,881.419 388.273,885.388 386.181,891.187C400.784,891.187 417.279,891.341 431.892,891.35C431.901,912.865 431.892,934.39 431.892,955.906C417.279,955.915 402.676,955.897 388.063,955.906C388.054,975.056 388.063,994.196 388.054,1013.34C388.091,1019.65 388.496,1026.48 392.289,1031.76C396.322,1037.07 402.943,1039.84 409.407,1040.2C418.2,1040.63 421.986,1038.38 429.748,1034.24C432.722,1055.62 435.705,1076.99 438.679,1098.37C429.103,1103.45 423.9,1107.17 413.412,1109.76C399.398,1112.99 384.804,1113.52 370.578,1111.59C355.781,1109.56 341.186,1103.73 330.119,1093.32C319.023,1083.19 312.283,1068.9 309.355,1054.18C306.62,1041.4 306.832,1028.27 306.869,1015.28C306.869,995.529 306.86,975.779 306.878,956.028C294.429,955.746 281.971,955.981 269.522,955.906L269.522,891.35C281.971,891.341 294.42,891.359 306.869,891.341C308.431,891.294 309.713,891.861 308.209,889.9C305.607,886.508 304.423,881.897 303.697,877.703C302.655,871.688 302.442,867.663 302.332,862.651C302.258,858.164 302.933,853.397 304.529,849.347C309.069,837.829 317.236,827.212 328.69,822.321Z" style="fill:rgb(36,159,84);"/>
                        </g>
                    </g>
                </g>
                <g>
                    <g transform="matrix(1,0,0,1,-0.81822,3.56071)">
                        <g>
                            <g transform="matrix(0.507781,0,0,0.393546,1776.35,2150.24)">
                                <path d="M192.03,262.86C218.76,258.77 246.16,259.35 272.82,263.68C303.99,268.75 332.61,284.19 356.75,304.14C340.56,331.28 324.39,358.43 308.19,385.56C293.2,369.19 271.68,360.03 249.84,357.65C228.39,355.28 205.62,356.87 186.26,367.15C171.84,374.64 160.44,387.52 154.45,402.6C147.29,420.44 146.43,440.37 149.75,459.16C153.14,478.71 164.43,497.07 181.4,507.64C196.07,517.14 213.75,520.86 231.04,521.24C262.31,522.13 293.61,512.16 318.98,493.94C334.04,521.56 349.07,549.19 364.11,576.82C349.56,587.56 333.5,596.19 316.6,602.57C291.69,612.57 264.81,616.88 238.09,617.63C214.41,618.8 190.46,616.84 167.55,610.58C132.33,601.11 99.67,580.64 77.82,551.2C65.06,534.29 55.76,514.83 50.44,494.33C44.83,472.75 43.02,450.24 44.38,428.01C45.82,397.39 54.64,366.95 71,340.94C84.65,318.87 103.78,300.28 125.98,286.88C146.17,274.68 168.77,266.67 192.03,262.86Z" style="fill:rgb(9,129,55);fill-rule:nonzero;"/>
                            </g>
                            <g transform="matrix(0.507781,0,0,0.393546,1782.72,2147.2)">
                                <path d="M703.302,320.579C711.172,320.139 719.302,320.019 726.752,322.979C732.642,325.589 738.362,328.919 742.582,333.899C749.092,339.949 753.432,348.049 755.792,356.559C757.266,362.391 757.925,368.188 757.048,374.809C756.406,380.511 753.842,384.749 753.972,389.889C753.992,407.469 747.388,394.991 753.265,390.694C769.135,390.704 785.438,391.032 801.308,391.042C801.318,413.962 800.96,438.64 800.95,461.56L753.35,461.56C753.34,482.38 753.32,503.19 753.36,524.01C753.45,530.9 754.23,538.52 759.15,543.81C764.91,549.88 773.75,552.08 781.9,551.3C789.64,550.83 793.56,547.946 800.43,544.376C803.67,567.146 806.89,589.926 810.12,612.696C804.03,615.556 798.07,618.776 791.57,620.656C771.01,628.276 752.02,630.35 730.45,626.78C711.97,623.69 694.15,614.49 682.58,599.5C669.73,582.99 665.49,561.52 665.24,541.02C665.05,514.53 665.26,488.05 665.13,461.57C651.62,461.55 638.12,461.57 624.61,461.55C624.62,438.63 624.317,413.816 624.327,390.896C637.672,390.74 651.586,390.685 665.076,390.685C665.009,390.446 665.518,390.665 669.605,390.722C669.815,385.022 665.629,377.833 665.085,372.045C664.035,366.43 664.062,360.579 665.852,355.199C668.142,347.369 672.222,339.939 678.282,334.399C684.552,326.899 693.772,322.259 703.302,320.579Z" style="fill:rgb(9,129,55);fill-rule:nonzero;"/>
                            </g>
                            <g transform="matrix(0.507781,0,0,0.393546,1783.7,2147.2)">
                                <path d="M885.389,318.435C890.579,315.755 896.429,314.785 902.229,314.975C912.839,314.425 925.457,317.113 933.527,324.063C937.427,328.193 941.65,331.709 944.24,336.879C947.387,341.512 949.074,346.977 950.922,355.377C951.609,358.498 952.693,370.973 951.899,370.029C952.471,374.488 951.337,378.539 951.181,379.399C950.82,381.39 950.098,385.619 947.826,391.796C963.686,391.796 981.6,391.96 997.47,391.97C997.48,414.89 997.47,437.82 997.47,460.74C981.6,460.75 965.74,460.73 949.87,460.74C949.86,481.14 949.87,501.53 949.86,521.92C949.9,528.65 950.34,535.92 954.46,541.55C958.84,547.2 966.03,550.15 973.05,550.54C982.6,550.99 986.711,548.6 995.141,544.19C998.371,566.96 1001.61,589.73 1004.84,612.5C994.441,617.92 988.79,621.88 977.4,624.64C962.18,628.08 946.33,628.64 930.88,626.59C914.81,624.42 898.96,618.21 886.94,607.12C874.89,596.33 867.57,581.11 864.39,565.43C861.42,551.82 861.65,537.83 861.69,523.99C861.69,502.95 861.68,481.91 861.7,460.87C848.18,460.57 834.65,460.82 821.13,460.74L821.13,391.97C834.65,391.96 848.17,391.98 861.69,391.96C863.386,391.91 864.779,392.515 863.145,390.425C860.32,386.813 859.034,381.9 858.245,377.432C857.114,371.024 856.883,366.737 856.763,361.397C856.683,356.617 857.415,351.54 859.149,347.225C864.079,334.955 872.949,323.645 885.389,318.435Z" style="fill:rgb(9,129,55);fill-rule:nonzero;"/>
                            </g>
                            <g transform="matrix(0.524663,0,0,0.402485,1765.42,2143.76)">
                                <path d="M1136.65,390.67C1155.08,382.58 1176.04,382.67 1195.39,387.11C1192.08,417.24 1188.79,447.36 1185.46,477.49C1172.91,472.69 1159.43,469.98 1145.97,470.63C1134.9,471.14 1123.44,475.5 1116.52,484.47C1110.84,492.03 1109.68,501.81 1109.65,510.99C1109.64,547.43 1109.66,583.88 1109.64,620.32L1021.49,620.32C1021.47,543.91 1021.49,467.49 1021.48,391.08C1050.87,391.07 1080.26,391.07 1109.65,391.08C1109.65,399 1109.64,406.92 1109.66,414.85C1115.7,404.1 1125.23,395.39 1136.65,390.67Z" style="fill:rgb(9,129,55);fill-rule:nonzero;"/>
                            </g>
                            <g transform="matrix(0.507781,0,0,0.393546,1780.76,2147.2)">
                                <path d="M367.9,391C397.29,390.99 426.68,390.99 456.07,391C456.09,431.66 456.05,472.32 456.09,512.99C456.1,522.33 457.77,532.46 464.45,539.48C471.15,546.57 481.65,548.04 490.94,547.21C500.25,546.43 509.12,540.93 513.49,532.59C518.14,524.22 517.74,514.31 517.8,505.04C517.79,467.03 517.79,429.01 517.79,391C547.18,390.99 576.57,391 605.96,391C605.96,467.41 605.97,543.82 605.96,620.23C580.98,620.24 556,620.23 531.01,620.24C531,612.75 531.02,605.27 531,597.78C518.82,609.77 504.31,620.53 487.31,624.22C473.75,627.09 459.76,627.23 446,626.04C434.66,624.68 423.28,622.19 413.06,616.93C395.74,608.61 382.49,592.93 376.02,574.94C369.23,557.48 367.81,538.51 367.9,519.94C367.91,476.96 367.89,433.98 367.9,391Z" style="fill:rgb(9,129,55);fill-rule:nonzero;"/>
                            </g>
                        </g>
                        <g>
                            <g transform="matrix(0.507781,0,0,0.393546,1776.35,2150.24)">
                                <path d="M192.03,262.86C218.76,258.77 246.16,259.35 272.82,263.68C303.99,268.75 332.61,284.19 356.75,304.14C340.56,331.28 324.39,358.43 308.19,385.56C293.2,369.19 271.68,360.03 249.84,357.65C228.39,355.28 205.62,356.87 186.26,367.15C171.84,374.64 160.44,387.52 154.45,402.6C147.29,420.44 146.43,440.37 149.75,459.16C153.14,478.71 164.43,497.07 181.4,507.64C196.07,517.14 213.75,520.86 231.04,521.24C262.31,522.13 293.61,512.16 318.98,493.94C334.04,521.56 349.07,549.19 364.11,576.82C349.56,587.56 333.5,596.19 316.6,602.57C291.69,612.57 264.81,616.88 238.09,617.63C214.41,618.8 190.46,616.84 167.55,610.58C132.33,601.11 99.67,580.64 77.82,551.2C65.06,534.29 55.76,514.83 50.44,494.33C44.83,472.75 43.02,450.24 44.38,428.01C45.82,397.39 54.64,366.95 71,340.94C84.65,318.87 103.78,300.28 125.98,286.88C146.17,274.68 168.77,266.67 192.03,262.86Z" style="fill:rgb(9,129,55);fill-rule:nonzero;"/>
                            </g>
                            <g transform="matrix(0.507781,0,0,0.393546,1782.72,2147.2)">
                                <path d="M703.302,320.579C711.172,320.139 719.302,320.019 726.752,322.979C732.642,325.589 738.362,328.919 742.582,333.899C749.092,339.949 753.432,348.049 755.792,356.559C757.266,362.391 757.925,368.188 757.048,374.809C756.406,380.511 753.842,384.749 753.972,389.889C753.992,407.469 747.388,394.991 753.265,390.694C769.135,390.704 785.438,391.032 801.308,391.042C801.318,413.962 800.96,438.64 800.95,461.56L753.35,461.56C753.34,482.38 753.32,503.19 753.36,524.01C753.45,530.9 754.23,538.52 759.15,543.81C764.91,549.88 773.75,552.08 781.9,551.3C789.64,550.83 793.56,547.946 800.43,544.376C803.67,567.146 806.89,589.926 810.12,612.696C804.03,615.556 798.07,618.776 791.57,620.656C771.01,628.276 752.02,630.35 730.45,626.78C711.97,623.69 694.15,614.49 682.58,599.5C669.73,582.99 665.49,561.52 665.24,541.02C665.05,514.53 665.26,488.05 665.13,461.57C651.62,461.55 638.12,461.57 624.61,461.55C624.62,438.63 624.317,413.816 624.327,390.896C637.672,390.74 651.586,390.685 665.076,390.685C665.009,390.446 665.518,390.665 669.605,390.722C669.815,385.022 665.629,377.833 665.085,372.045C664.035,366.43 664.062,360.579 665.852,355.199C668.142,347.369 672.222,339.939 678.282,334.399C684.552,326.899 693.772,322.259 703.302,320.579Z" style="fill:rgb(9,129,55);fill-rule:nonzero;"/>
                            </g>
                            <g transform="matrix(0.507781,0,0,0.393546,1783.7,2147.2)">
                                <path d="M885.389,318.435C890.579,315.755 896.429,314.785 902.229,314.975C912.839,314.425 925.457,317.113 933.527,324.063C937.427,328.193 941.65,331.709 944.24,336.879C947.387,341.512 949.074,346.977 950.922,355.377C951.609,358.498 952.693,370.973 951.899,370.029C952.471,374.488 951.337,378.539 951.181,379.399C950.82,381.39 950.098,385.619 947.826,391.796C963.686,391.796 981.6,391.96 997.47,391.97C997.48,414.89 997.47,437.82 997.47,460.74C981.6,460.75 965.74,460.73 949.87,460.74C949.86,481.14 949.87,501.53 949.86,521.92C949.9,528.65 950.34,535.92 954.46,541.55C958.84,547.2 966.03,550.15 973.05,550.54C982.6,550.99 986.711,548.6 995.141,544.19C998.371,566.96 1001.61,589.73 1004.84,612.5C994.441,617.92 988.79,621.88 977.4,624.64C962.18,628.08 946.33,628.64 930.88,626.59C914.81,624.42 898.96,618.21 886.94,607.12C874.89,596.33 867.57,581.11 864.39,565.43C861.42,551.82 861.65,537.83 861.69,523.99C861.69,502.95 861.68,481.91 861.7,460.87C848.18,460.57 834.65,460.82 821.13,460.74L821.13,391.97C834.65,391.96 848.17,391.98 861.69,391.96C863.386,391.91 864.779,392.515 863.145,390.425C860.32,386.813 859.034,381.9 858.245,377.432C857.114,371.024 856.883,366.737 856.763,361.397C856.683,356.617 857.415,351.54 859.149,347.225C864.079,334.955 872.949,323.645 885.389,318.435Z" style="fill:rgb(9,129,55);fill-rule:nonzero;"/>
                            </g>
                            <g transform="matrix(0.524663,0,0,0.402485,1765.42,2143.76)">
                                <path d="M1136.65,390.67C1155.08,382.58 1176.04,382.67 1195.39,387.11C1192.08,417.24 1188.79,447.36 1185.46,477.49C1172.91,472.69 1159.43,469.98 1145.97,470.63C1134.9,471.14 1123.44,475.5 1116.52,484.47C1110.84,492.03 1109.68,501.81 1109.65,510.99C1109.64,547.43 1109.66,583.88 1109.64,620.32L1021.49,620.32C1021.47,543.91 1021.49,467.49 1021.48,391.08C1050.87,391.07 1080.26,391.07 1109.65,391.08C1109.65,399 1109.64,406.92 1109.66,414.85C1115.7,404.1 1125.23,395.39 1136.65,390.67Z" style="fill:rgb(9,129,55);fill-rule:nonzero;"/>
                            </g>
                            <g transform="matrix(0.507781,0,0,0.393546,1780.76,2147.2)">
                                <path d="M367.9,391C397.29,390.99 426.68,390.99 456.07,391C456.09,431.66 456.05,472.32 456.09,512.99C456.1,522.33 457.77,532.46 464.45,539.48C471.15,546.57 481.65,548.04 490.94,547.21C500.25,546.43 509.12,540.93 513.49,532.59C518.14,524.22 517.74,514.31 517.8,505.04C517.79,467.03 517.79,429.01 517.79,391C547.18,390.99 576.57,391 605.96,391C605.96,467.41 605.97,543.82 605.96,620.23C580.98,620.24 556,620.23 531.01,620.24C531,612.75 531.02,605.27 531,597.78C518.82,609.77 504.31,620.53 487.31,624.22C473.75,627.09 459.76,627.23 446,626.04C434.66,624.68 423.28,622.19 413.06,616.93C395.74,608.61 382.49,592.93 376.02,574.94C369.23,557.48 367.81,538.51 367.9,519.94C367.91,476.96 367.89,433.98 367.9,391Z" style="fill:rgb(9,129,55);fill-rule:nonzero;"/>
                            </g>
                        </g>
                        <g>
                            <g transform="matrix(0.507781,0,0,0.393546,1776.35,2150.24)">
                                <path d="M192.03,262.86C218.76,258.77 246.16,259.35 272.82,263.68C303.99,268.75 332.61,284.19 356.75,304.14C340.56,331.28 324.39,358.43 308.19,385.56C293.2,369.19 271.68,360.03 249.84,357.65C228.39,355.28 205.62,356.87 186.26,367.15C171.84,374.64 160.44,387.52 154.45,402.6C147.29,420.44 146.43,440.37 149.75,459.16C153.14,478.71 164.43,497.07 181.4,507.64C196.07,517.14 213.75,520.86 231.04,521.24C262.31,522.13 293.61,512.16 318.98,493.94C334.04,521.56 349.07,549.19 364.11,576.82C349.56,587.56 333.5,596.19 316.6,602.57C291.69,612.57 264.81,616.88 238.09,617.63C214.41,618.8 190.46,616.84 167.55,610.58C132.33,601.11 99.67,580.64 77.82,551.2C65.06,534.29 55.76,514.83 50.44,494.33C44.83,472.75 43.02,450.24 44.38,428.01C45.82,397.39 54.64,366.95 71,340.94C84.65,318.87 103.78,300.28 125.98,286.88C146.17,274.68 168.77,266.67 192.03,262.86Z" style="fill:rgb(9,129,55);fill-rule:nonzero;"/>
                            </g>
                            <g transform="matrix(0.507781,0,0,0.393546,1782.72,2147.2)">
                                <path d="M703.302,320.579C711.172,320.139 719.302,320.019 726.752,322.979C732.642,325.589 738.362,328.919 742.582,333.899C749.092,339.949 753.432,348.049 755.792,356.559C757.266,362.391 757.925,368.188 757.048,374.809C756.406,380.511 753.842,384.749 753.972,389.889C753.992,407.469 747.388,394.991 753.265,390.694C769.135,390.704 785.438,391.032 801.308,391.042C801.318,413.962 800.96,438.64 800.95,461.56L753.35,461.56C753.34,482.38 753.32,503.19 753.36,524.01C753.45,530.9 754.23,538.52 759.15,543.81C764.91,549.88 773.75,552.08 781.9,551.3C789.64,550.83 793.56,547.946 800.43,544.376C803.67,567.146 806.89,589.926 810.12,612.696C804.03,615.556 798.07,618.776 791.57,620.656C771.01,628.276 752.02,630.35 730.45,626.78C711.97,623.69 694.15,614.49 682.58,599.5C669.73,582.99 665.49,561.52 665.24,541.02C665.05,514.53 665.26,488.05 665.13,461.57C651.62,461.55 638.12,461.57 624.61,461.55C624.62,438.63 624.317,413.816 624.327,390.896C637.672,390.74 651.586,390.685 665.076,390.685C665.009,390.446 665.518,390.665 669.605,390.722C669.815,385.022 665.629,377.833 665.085,372.045C664.035,366.43 664.062,360.579 665.852,355.199C668.142,347.369 672.222,339.939 678.282,334.399C684.552,326.899 693.772,322.259 703.302,320.579Z" style="fill:rgb(9,129,55);fill-rule:nonzero;"/>
                            </g>
                            <g transform="matrix(0.507781,0,0,0.393546,1783.7,2147.2)">
                                <path d="M885.389,318.435C890.579,315.755 896.429,314.785 902.229,314.975C912.839,314.425 925.457,317.113 933.527,324.063C937.427,328.193 941.65,331.709 944.24,336.879C947.387,341.512 949.074,346.977 950.922,355.377C951.609,358.498 952.693,370.973 951.899,370.029C952.471,374.488 951.337,378.539 951.181,379.399C950.82,381.39 950.098,385.619 947.826,391.796C963.686,391.796 981.6,391.96 997.47,391.97C997.48,414.89 997.47,437.82 997.47,460.74C981.6,460.75 965.74,460.73 949.87,460.74C949.86,481.14 949.87,501.53 949.86,521.92C949.9,528.65 950.34,535.92 954.46,541.55C958.84,547.2 966.03,550.15 973.05,550.54C982.6,550.99 986.711,548.6 995.141,544.19C998.371,566.96 1001.61,589.73 1004.84,612.5C994.441,617.92 988.79,621.88 977.4,624.64C962.18,628.08 946.33,628.64 930.88,626.59C914.81,624.42 898.96,618.21 886.94,607.12C874.89,596.33 867.57,581.11 864.39,565.43C861.42,551.82 861.65,537.83 861.69,523.99C861.69,502.95 861.68,481.91 861.7,460.87C848.18,460.57 834.65,460.82 821.13,460.74L821.13,391.97C834.65,391.96 848.17,391.98 861.69,391.96C863.386,391.91 864.779,392.515 863.145,390.425C860.32,386.813 859.034,381.9 858.245,377.432C857.114,371.024 856.883,366.737 856.763,361.397C856.683,356.617 857.415,351.54 859.149,347.225C864.079,334.955 872.949,323.645 885.389,318.435Z" style="fill:rgb(9,129,55);fill-rule:nonzero;"/>
                            </g>
                            <g transform="matrix(0.524663,0,0,0.402485,1765.42,2143.76)">
                                <path d="M1136.65,390.67C1155.08,382.58 1176.04,382.67 1195.39,387.11C1192.08,417.24 1188.79,447.36 1185.46,477.49C1172.91,472.69 1159.43,469.98 1145.97,470.63C1134.9,471.14 1123.44,475.5 1116.52,484.47C1110.84,492.03 1109.68,501.81 1109.65,510.99C1109.64,547.43 1109.66,583.88 1109.64,620.32L1021.49,620.32C1021.47,543.91 1021.49,467.49 1021.48,391.08C1050.87,391.07 1080.26,391.07 1109.65,391.08C1109.65,399 1109.64,406.92 1109.66,414.85C1115.7,404.1 1125.23,395.39 1136.65,390.67Z" style="fill:rgb(9,129,55);fill-rule:nonzero;"/>
                            </g>
                            <g transform="matrix(0.507781,0,0,0.393546,1780.76,2147.2)">
                                <path d="M367.9,391C397.29,390.99 426.68,390.99 456.07,391C456.09,431.66 456.05,472.32 456.09,512.99C456.1,522.33 457.77,532.46 464.45,539.48C471.15,546.57 481.65,548.04 490.94,547.21C500.25,546.43 509.12,540.93 513.49,532.59C518.14,524.22 517.74,514.31 517.8,505.04C517.79,467.03 517.79,429.01 517.79,391C547.18,390.99 576.57,391 605.96,391C605.96,467.41 605.97,543.82 605.96,620.23C580.98,620.24 556,620.23 531.01,620.24C531,612.75 531.02,605.27 531,597.78C518.82,609.77 504.31,620.53 487.31,624.22C473.75,627.09 459.76,627.23 446,626.04C434.66,624.68 423.28,622.19 413.06,616.93C395.74,608.61 382.49,592.93 376.02,574.94C369.23,557.48 367.81,538.51 367.9,519.94C367.91,476.96 367.89,433.98 367.9,391Z" style="fill:rgb(9,129,55);fill-rule:nonzero;"/>
                            </g>
                        </g>
                    </g>
                </g>
            </g>
        </g>
    </g>
</svg>
