<?xml version="1.0" encoding="UTF-8" standalone="no"?>
<!DOCTYPE svg PUBLIC "-//W3C//DTD SVG 1.1//EN" "http://www.w3.org/Graphics/SVG/1.1/DTD/svg11.dtd">
<svg width="100%" height="100%" viewBox="0 0 513 513" version="1.1" xmlns="http://www.w3.org/2000/svg" xmlns:xlink="http://www.w3.org/1999/xlink" xml:space="preserve" xmlns:serif="http://www.serif.com/" style="fill-rule:evenodd;clip-rule:evenodd;stroke-linejoin:round;stroke-miterlimit:2;">
    <g transform="matrix(1,0,0,1,0,-55)">
        <g id="Artboard2" transform="matrix(0.92873,0,0,0.941503,775.304,3.16615)">
            <rect x="-834.8" y="55.054" width="551.44" height="543.97" style="fill:none;"/>
            <clipPath id="_clip1">
                <rect x="-834.8" y="55.054" width="551.44" height="543.97"/>
            </clipPath>
            <g clip-path="url(#_clip1)">
                <g transform="matrix(1.04441,0,0,0.956366,-828.641,10.1746)">
                    <path d="M522.27,188.726L522.27,473.266C522.27,551.787 463.092,615.536 390.201,615.536L125.815,615.536C52.924,615.536 -6.254,551.787 -6.254,473.266L-6.254,188.726C-6.254,110.205 52.924,46.456 125.815,46.456L390.201,46.456C463.092,46.456 522.27,110.205 522.27,188.726Z" style="fill:rgb(65,85,72);"/>
                </g>
                <g transform="matrix(0.822673,0,0,0.80324,-1256.49,-23.8995)">
                    <path d="M1136.65,390.67C1155.08,382.58 1176.04,382.67 1195.39,387.11C1192.08,417.24 1188.79,447.36 1185.46,477.49C1172.91,472.69 1159.43,469.98 1145.97,470.63C1134.9,471.14 1123.44,475.5 1116.52,484.47C1110.84,492.03 1109.68,501.81 1109.65,510.99C1109.64,547.43 1109.66,583.88 1109.64,620.32L1021.49,620.32C1021.47,543.91 1021.49,467.49 1021.48,391.08C1050.87,391.07 1080.26,391.07 1109.65,391.08C1109.65,399 1109.64,406.92 1109.66,414.85C1115.7,404.1 1125.23,395.39 1136.65,390.67Z" style="fill:rgb(135,230,93);fill-rule:nonzero;"/>
                </g>
                <g transform="matrix(0.799483,0,0,0.788637,-1230.95,-17.4097)">
                    <path d="M367.9,391C397.29,390.99 426.68,390.99 456.07,391C456.09,431.66 456.05,472.32 456.09,512.99C456.1,522.33 457.77,532.46 464.45,539.48C471.15,546.57 481.65,548.04 490.94,547.21C500.25,546.43 509.12,540.93 513.49,532.59C518.14,524.22 517.74,514.31 517.8,505.04C517.79,467.03 517.79,429.01 517.79,391C547.18,390.99 576.57,391 605.96,391C605.96,467.41 605.97,543.82 605.96,620.23C580.98,620.24 556,620.23 531.01,620.24C531,612.75 531.02,605.27 531,597.78C518.82,609.77 504.31,620.53 487.31,624.22C473.75,627.09 459.76,627.23 446,626.04C434.66,624.68 423.28,622.19 413.06,616.93C395.74,608.61 382.49,592.93 376.02,574.94C369.23,557.48 367.81,538.51 367.9,519.94C367.91,476.96 367.89,433.98 367.9,391Z" style="fill:rgb(135,230,93);fill-rule:nonzero;"/>
                </g>
                <g transform="matrix(0.700635,0,0,0.700635,-144.529,56.2266)">
                    <g transform="matrix(1.11461,0,0,1.09949,-1527.1,-95.0593)">
                        <path d="M895.075,261.192C902.965,258.955 957.423,245.617 958.294,251.812C962.535,254.692 980.166,325.288 980.252,325.647C980.839,327.262 985.596,344.049 979.506,348.559C975.666,351.379 972.498,352.815 968.128,354.845C967.698,346.595 965.146,340.739 962.216,333.069C959.286,327.459 956.224,321.559 951.614,317.089C946.934,312.459 942.216,307.104 936.276,303.984C930.466,300.864 924.496,297.904 918.086,296.264C912.866,294.924 907.441,294.95 902.146,295.374C894.801,295.963 888.301,297.429 880.876,299.548C875.056,302.528 866.151,306.636 861.207,311.302C854.268,317.852 850.177,322.195 845.401,332.088C842.222,338.675 839.803,351.734 839.563,358.964C839.433,365.964 838.973,364.681 840.003,371.641C841.143,376.651 840.762,374.153 842.042,379.133C816.392,379.263 797.366,379.436 771.726,379.336C774.002,362.905 770.333,345.926 766.114,337.372C757.288,319.475 733.868,303.944 731.231,306.079C736.391,305.149 763.515,299.432 768.475,297.732C774.855,295.382 781.925,295.282 788.015,292.082C790.095,290.952 801.775,288.672 805.415,287.482C814.715,284.182 824.405,282.152 833.735,278.912C837.835,277.352 842.205,276.782 846.415,275.602C856.305,272.202 868.368,269.148 874.581,267.318C881.39,265.314 888.707,262.997 895.075,261.192Z" style="fill:rgb(135,230,93);fill-rule:nonzero;"/>
                    </g>
                    <g transform="matrix(0.448565,0.304335,-0.47361,0.679251,-742.132,-222.996)">
                        <path d="M973.85,45.95C978.63,39.09 984.917,26.652 988.91,25.81C991.753,25.211 996.587,24.624 1000.38,25.56C1010.79,28.128 923.9,183.85 918.77,191.78C914.688,198.09 911.77,205.38 904.65,208.26C900.43,208.62 895.935,209.27 891.97,206.11C889.085,203.811 887.924,202.952 886.33,198.13C884.929,193.891 885.29,188.83 888.14,185.13C894.59,176.06 899.49,166 905.79,156.84C909.67,150.92 912.88,144.6 916.69,138.64C922.99,129.49 928.11,119.59 934.25,110.33C937.95,104.64 941.3,98.73 944.69,92.84C947.88,88.33 957.49,72.81 959.39,69.04C964.74,61.68 968.64,53.41 973.85,45.95Z" style="fill:rgb(135,230,93);fill-rule:nonzero;"/>
                    </g>
                    <g transform="matrix(0.824185,0.00398443,-0.00399568,0.804238,-1308.76,-15.207)">
                        <path d="M796.084,233.129C802.354,231.369 808.584,229.019 815.174,228.939C819.456,226.179 846.909,231.354 854.573,236.722C857.343,238.662 866.294,247.539 868.564,252.009C870.784,256.159 873.284,260.199 874.754,264.699C868.784,265.509 863.274,268.119 857.384,269.279C849.114,271.869 840.764,274.229 832.504,276.859C822.734,278.929 813.324,282.279 803.694,284.859C792.474,288.819 780.804,291.249 769.554,295.099C763.544,296.319 757.874,299.069 751.674,299.319C752.094,288.319 749.834,276.559 754.954,266.329C756.914,261.579 759.044,256.729 762.784,253.079C771.464,243.179 783.494,236.609 796.084,233.129Z" style="fill:rgb(135,230,93);fill-rule:nonzero;"/>
                    </g>
                    <g transform="matrix(0.188491,-0.55226,0.630358,0.209349,-1098.89,650.844)">
                        <path d="M716.794,181.49C723.064,179.73 729.294,177.38 735.884,177.3C742.234,177.28 748.594,177.32 754.954,177.29C761.104,177.13 762.071,180.126 767.511,182.546C770.611,183.896 773.081,186.246 775.251,188.796C778.431,192.556 793.269,216.752 795.539,221.222C797.759,225.372 815.711,255.535 819.166,262.126C756.001,218.899 694.755,260.639 694.658,260.371C687.232,239.919 676.918,219.271 680.254,211.187C682.214,206.437 684.344,201.587 688.084,197.937C696.764,188.037 704.204,184.97 716.794,181.49Z" style="fill:rgb(135,230,93);fill-rule:nonzero;"/>
                    </g>
                    <g transform="matrix(1.11461,0,0,1.09949,-1529.25,-95.0593)">
                        <path d="M703.302,320.579C711.172,320.139 719.302,320.019 726.752,322.979C732.642,325.589 738.362,328.919 742.582,333.899C749.092,339.949 753.432,348.049 755.792,356.559C757.266,362.391 757.925,368.188 757.048,374.809C756.406,380.511 753.842,384.749 753.972,389.889C753.992,407.469 747.388,394.991 753.265,390.694C769.135,390.704 785.438,391.032 801.308,391.042C801.318,413.962 800.96,438.64 800.95,461.56L753.35,461.56C753.34,482.38 753.32,503.19 753.36,524.01C753.45,530.9 754.23,538.52 759.15,543.81C764.91,549.88 773.75,552.08 781.9,551.3C789.64,550.83 793.56,547.946 800.43,544.376C803.67,567.146 806.89,589.926 810.12,612.696C804.03,615.556 798.07,618.776 791.57,620.656C771.01,628.276 752.02,630.35 730.45,626.78C711.97,623.69 694.15,614.49 682.58,599.5C669.73,582.99 665.49,561.52 665.24,541.02C665.05,514.53 665.26,488.05 665.13,461.57C651.62,461.55 638.12,461.57 624.61,461.55C624.62,438.63 624.317,413.816 624.327,390.896C637.672,390.74 651.586,390.685 665.076,390.685C665.009,390.446 665.518,390.665 669.605,390.722C669.815,385.022 665.629,377.833 665.085,372.045C664.035,366.43 664.062,360.579 665.852,355.199C668.142,347.369 672.222,339.939 678.282,334.399C684.552,326.899 693.772,322.259 703.302,320.579Z" style="fill:rgb(135,230,93);fill-rule:nonzero;"/>
                    </g>
                    <g transform="matrix(1.11461,0,0,1.09949,-1527.1,-95.0593)">
                        <path d="M885.389,318.435C890.579,315.755 896.429,314.785 902.229,314.975C912.839,314.425 925.457,317.113 933.527,324.063C937.427,328.193 941.65,331.709 944.24,336.879C947.387,341.512 949.074,346.977 950.922,355.377C951.609,358.498 952.693,370.973 951.899,370.029C952.471,374.488 951.337,378.539 951.181,379.399C950.82,381.39 950.098,385.619 947.826,391.796C963.686,391.796 981.6,391.96 997.47,391.97C997.48,414.89 997.47,437.82 997.47,460.74C981.6,460.75 965.74,460.73 949.87,460.74C949.86,481.14 949.87,501.53 949.86,521.92C949.9,528.65 950.34,535.92 954.46,541.55C958.84,547.2 966.03,550.15 973.05,550.54C982.6,550.99 986.711,548.6 995.141,544.19C998.371,566.96 1001.61,589.73 1004.84,612.5C994.441,617.92 988.79,621.88 977.4,624.64C962.18,628.08 946.33,628.64 930.88,626.59C914.81,624.42 898.96,618.21 886.94,607.12C874.89,596.33 867.57,581.11 864.39,565.43C861.42,551.82 861.65,537.83 861.69,523.99C861.69,502.95 861.68,481.91 861.7,460.87C848.18,460.57 834.65,460.82 821.13,460.74L821.13,391.97C834.65,391.96 848.17,391.98 861.69,391.96C863.386,391.91 864.779,392.515 863.145,390.425C860.32,386.813 859.034,381.9 858.245,377.432C857.114,371.024 856.883,366.737 856.763,361.397C856.683,356.617 857.415,351.54 859.149,347.225C864.079,334.955 872.949,323.645 885.389,318.435Z" style="fill:rgb(135,230,93);fill-rule:nonzero;"/>
                    </g>
                </g>
                <g transform="matrix(0.793639,0,0,0.782872,-837.582,112.467)">
                    <g transform="matrix(85.8729,0,0,85.8729,62.3885,553.074)">
                        <path d="M0.085,-0L0.085,-0.7L0.233,-0.7L0.233,-0.135L0.522,-0.135L0.522,-0L0.085,-0Z" style="fill:rgb(135,230,93);fill-rule:nonzero;"/>
                    </g>
                    <g transform="matrix(85.8729,0,0,85.8729,110.917,553.074)">
                        <path d="M0.212,0.015C0.178,0.015 0.148,0.008 0.121,-0.005C0.095,-0.018 0.074,-0.036 0.058,-0.06C0.043,-0.084 0.035,-0.113 0.035,-0.147C0.035,-0.175 0.042,-0.201 0.057,-0.223C0.071,-0.246 0.093,-0.264 0.122,-0.279C0.151,-0.293 0.188,-0.303 0.233,-0.308C0.277,-0.313 0.33,-0.313 0.391,-0.307L0.393,-0.214C0.357,-0.22 0.325,-0.223 0.297,-0.223C0.269,-0.222 0.246,-0.219 0.227,-0.214C0.208,-0.209 0.194,-0.201 0.184,-0.191C0.174,-0.181 0.169,-0.168 0.169,-0.154C0.169,-0.134 0.177,-0.119 0.191,-0.109C0.206,-0.098 0.226,-0.093 0.251,-0.093C0.273,-0.093 0.292,-0.097 0.31,-0.104C0.327,-0.112 0.341,-0.123 0.351,-0.138C0.361,-0.153 0.366,-0.17 0.366,-0.191L0.366,-0.313C0.366,-0.332 0.362,-0.349 0.354,-0.364C0.346,-0.379 0.333,-0.39 0.316,-0.399C0.298,-0.407 0.276,-0.411 0.248,-0.411C0.222,-0.411 0.196,-0.407 0.17,-0.399C0.145,-0.391 0.121,-0.379 0.099,-0.364L0.061,-0.465C0.093,-0.486 0.128,-0.501 0.164,-0.511C0.201,-0.52 0.236,-0.525 0.27,-0.525C0.318,-0.525 0.359,-0.517 0.394,-0.502C0.43,-0.487 0.457,-0.464 0.477,-0.433C0.496,-0.402 0.506,-0.363 0.506,-0.315L0.506,-0L0.379,-0L0.379,-0.056C0.362,-0.033 0.34,-0.015 0.311,-0.003C0.282,0.009 0.249,0.015 0.212,0.015Z" style="fill:rgb(135,230,93);fill-rule:nonzero;"/>
                    </g>
                    <g transform="matrix(85.8729,0,0,85.8729,159.055,553.074)">
                        <path d="M0.164,-0L0.01,-0.505L0.152,-0.505L0.243,-0.168L0.345,-0.505L0.481,-0.505L0.578,-0.168L0.669,-0.505L0.805,-0.505L0.652,-0L0.505,-0L0.41,-0.325L0.31,-0L0.164,-0Z" style="fill:rgb(135,230,93);fill-rule:nonzero;"/>
                    </g>
                    <g transform="matrix(85.8729,0,0,85.8729,229.062,553.074)">
                        <path d="M0.071,-0L0.071,-0.505L0.217,-0.505L0.217,-0.448C0.236,-0.473 0.259,-0.491 0.286,-0.503C0.312,-0.514 0.34,-0.52 0.369,-0.52C0.416,-0.52 0.455,-0.511 0.485,-0.492C0.516,-0.474 0.538,-0.45 0.553,-0.42C0.568,-0.391 0.575,-0.36 0.575,-0.328L0.575,-0L0.429,-0L0.429,-0.282C0.429,-0.315 0.42,-0.34 0.403,-0.359C0.385,-0.378 0.359,-0.387 0.326,-0.387C0.304,-0.387 0.285,-0.383 0.269,-0.373C0.253,-0.364 0.24,-0.35 0.231,-0.333C0.222,-0.316 0.217,-0.297 0.217,-0.274L0.217,-0L0.071,-0Z" style="fill:rgb(135,230,93);fill-rule:nonzero;"/>
                    </g>
                    <g transform="matrix(85.8729,0,0,85.8729,304.319,553.074)">
                        <path d="M0.324,0.015C0.273,0.015 0.223,0.007 0.174,-0.008C0.125,-0.023 0.084,-0.044 0.05,-0.073L0.121,-0.184C0.136,-0.169 0.155,-0.156 0.178,-0.145C0.2,-0.134 0.224,-0.125 0.25,-0.119C0.275,-0.113 0.3,-0.11 0.325,-0.11C0.363,-0.11 0.394,-0.117 0.418,-0.13C0.441,-0.144 0.453,-0.164 0.453,-0.189C0.453,-0.21 0.445,-0.227 0.428,-0.241C0.411,-0.255 0.38,-0.268 0.335,-0.281L0.271,-0.299C0.201,-0.318 0.15,-0.345 0.119,-0.379C0.088,-0.412 0.072,-0.453 0.072,-0.501C0.072,-0.532 0.079,-0.561 0.092,-0.587C0.105,-0.613 0.123,-0.635 0.147,-0.655C0.17,-0.674 0.198,-0.688 0.23,-0.699C0.262,-0.709 0.297,-0.714 0.335,-0.714C0.386,-0.714 0.433,-0.707 0.477,-0.692C0.521,-0.677 0.557,-0.657 0.584,-0.632L0.511,-0.524C0.498,-0.537 0.482,-0.549 0.463,-0.558C0.444,-0.568 0.424,-0.576 0.402,-0.581C0.38,-0.587 0.357,-0.59 0.335,-0.59C0.311,-0.59 0.29,-0.586 0.272,-0.58C0.254,-0.573 0.24,-0.564 0.23,-0.552C0.219,-0.54 0.214,-0.525 0.214,-0.508C0.214,-0.495 0.218,-0.484 0.225,-0.475C0.232,-0.466 0.245,-0.457 0.262,-0.449C0.279,-0.441 0.303,-0.433 0.333,-0.424L0.399,-0.404C0.468,-0.384 0.518,-0.358 0.55,-0.327C0.581,-0.296 0.597,-0.255 0.597,-0.205C0.597,-0.162 0.586,-0.123 0.564,-0.09C0.542,-0.057 0.51,-0.031 0.47,-0.013C0.429,0.006 0.381,0.015 0.324,0.015Z" style="fill:rgb(135,230,93);fill-rule:nonzero;"/>
                    </g>
                    <g transform="matrix(85.8729,0,0,85.8729,358.859,553.074)">
                        <path d="M0.071,-0L0.071,-0.72L0.217,-0.72L0.217,-0.395L0.187,-0.43C0.209,-0.459 0.235,-0.481 0.265,-0.496C0.296,-0.512 0.329,-0.52 0.365,-0.52C0.412,-0.52 0.451,-0.511 0.482,-0.492C0.513,-0.473 0.537,-0.449 0.552,-0.419C0.568,-0.389 0.575,-0.357 0.575,-0.323L0.575,-0L0.429,-0L0.429,-0.282C0.429,-0.313 0.42,-0.338 0.402,-0.358C0.383,-0.377 0.357,-0.387 0.324,-0.387C0.302,-0.387 0.283,-0.383 0.267,-0.374C0.251,-0.364 0.239,-0.351 0.23,-0.334C0.221,-0.317 0.217,-0.297 0.217,-0.274L0.217,-0L0.071,-0Z" style="fill:rgb(135,230,93);fill-rule:nonzero;"/>
                    </g>
                    <g transform="matrix(85.8729,0,0,85.8729,413.936,553.074)">
                        <path d="M0.212,0.015C0.178,0.015 0.148,0.008 0.121,-0.005C0.095,-0.018 0.074,-0.036 0.058,-0.06C0.043,-0.084 0.035,-0.113 0.035,-0.147C0.035,-0.175 0.042,-0.201 0.057,-0.223C0.071,-0.246 0.093,-0.264 0.122,-0.279C0.151,-0.293 0.188,-0.303 0.233,-0.308C0.277,-0.313 0.33,-0.313 0.391,-0.307L0.393,-0.214C0.357,-0.22 0.325,-0.223 0.297,-0.223C0.269,-0.222 0.246,-0.219 0.227,-0.214C0.208,-0.209 0.194,-0.201 0.184,-0.191C0.174,-0.181 0.169,-0.168 0.169,-0.154C0.169,-0.134 0.177,-0.119 0.191,-0.109C0.206,-0.098 0.226,-0.093 0.251,-0.093C0.273,-0.093 0.292,-0.097 0.31,-0.104C0.327,-0.112 0.341,-0.123 0.351,-0.138C0.361,-0.153 0.366,-0.17 0.366,-0.191L0.366,-0.313C0.366,-0.332 0.362,-0.349 0.354,-0.364C0.346,-0.379 0.333,-0.39 0.316,-0.399C0.298,-0.407 0.276,-0.411 0.248,-0.411C0.222,-0.411 0.196,-0.407 0.17,-0.399C0.145,-0.391 0.121,-0.379 0.099,-0.364L0.061,-0.465C0.093,-0.486 0.128,-0.501 0.164,-0.511C0.201,-0.52 0.236,-0.525 0.27,-0.525C0.318,-0.525 0.359,-0.517 0.394,-0.502C0.43,-0.487 0.457,-0.464 0.477,-0.433C0.496,-0.402 0.506,-0.363 0.506,-0.315L0.506,-0L0.379,-0L0.379,-0.056C0.362,-0.033 0.34,-0.015 0.311,-0.003C0.282,0.009 0.249,0.015 0.212,0.015Z" style="fill:rgb(135,230,93);fill-rule:nonzero;"/>
                    </g>
                    <g transform="matrix(85.8729,0,0,85.8729,462.932,553.074)">
                        <path d="M0.071,-0L0.071,-0.505L0.217,-0.505L0.217,-0.442C0.233,-0.47 0.254,-0.49 0.28,-0.502C0.306,-0.515 0.334,-0.521 0.364,-0.521C0.375,-0.521 0.385,-0.52 0.394,-0.519C0.403,-0.518 0.411,-0.516 0.42,-0.514L0.402,-0.364C0.391,-0.368 0.38,-0.371 0.368,-0.373C0.356,-0.375 0.344,-0.376 0.332,-0.376C0.299,-0.376 0.271,-0.367 0.25,-0.347C0.228,-0.327 0.217,-0.299 0.217,-0.263L0.217,-0L0.071,-0Z" style="fill:rgb(135,230,93);fill-rule:nonzero;"/>
                    </g>
                    <g transform="matrix(85.8729,0,0,85.8729,500.061,553.074)">
                        <path d="M0.071,-0L0.071,-0.505L0.217,-0.505L0.217,-0L0.071,-0ZM0.144,-0.585C0.12,-0.585 0.099,-0.593 0.081,-0.608C0.063,-0.623 0.055,-0.643 0.055,-0.669C0.055,-0.694 0.063,-0.715 0.081,-0.73C0.099,-0.745 0.12,-0.753 0.144,-0.753C0.168,-0.753 0.189,-0.745 0.207,-0.73C0.225,-0.715 0.234,-0.694 0.234,-0.669C0.234,-0.643 0.225,-0.623 0.207,-0.608C0.189,-0.593 0.168,-0.585 0.144,-0.585Z" style="fill:rgb(135,230,93);fill-rule:nonzero;"/>
                    </g>
                    <g transform="matrix(85.8729,0,0,85.8729,524.782,553.074)">
                        <path d="M0.071,-0L0.071,-0.505L0.217,-0.505L0.217,-0.448C0.236,-0.473 0.259,-0.491 0.286,-0.503C0.312,-0.514 0.34,-0.52 0.369,-0.52C0.416,-0.52 0.455,-0.511 0.485,-0.492C0.516,-0.474 0.538,-0.45 0.553,-0.42C0.568,-0.391 0.575,-0.36 0.575,-0.328L0.575,-0L0.429,-0L0.429,-0.282C0.429,-0.315 0.42,-0.34 0.403,-0.359C0.385,-0.378 0.359,-0.387 0.326,-0.387C0.304,-0.387 0.285,-0.383 0.269,-0.373C0.253,-0.364 0.24,-0.35 0.231,-0.333C0.222,-0.316 0.217,-0.297 0.217,-0.274L0.217,-0L0.071,-0Z" style="fill:rgb(135,230,93);fill-rule:nonzero;"/>
                    </g>
                    <g transform="matrix(85.8729,0,0,85.8729,579.859,553.074)">
                        <path d="M0.268,0.225C0.231,0.225 0.197,0.222 0.166,0.215C0.136,0.209 0.11,0.2 0.089,0.187C0.067,0.175 0.051,0.16 0.039,0.143C0.028,0.126 0.022,0.107 0.022,0.085C0.022,0.069 0.027,0.053 0.036,0.038C0.045,0.023 0.059,0.01 0.076,-0.001C0.094,-0.011 0.115,-0.019 0.14,-0.025C0.121,-0.035 0.107,-0.047 0.097,-0.061C0.088,-0.074 0.084,-0.089 0.084,-0.106C0.084,-0.121 0.088,-0.136 0.097,-0.149C0.106,-0.163 0.118,-0.175 0.135,-0.186C0.151,-0.197 0.17,-0.205 0.192,-0.212C0.214,-0.218 0.237,-0.221 0.263,-0.222L0.291,-0.164C0.272,-0.165 0.255,-0.163 0.243,-0.161C0.23,-0.158 0.22,-0.154 0.214,-0.149C0.207,-0.143 0.204,-0.137 0.204,-0.13C0.204,-0.121 0.209,-0.114 0.22,-0.11C0.231,-0.105 0.248,-0.101 0.271,-0.099L0.358,-0.092C0.4,-0.089 0.436,-0.082 0.466,-0.071C0.497,-0.061 0.521,-0.046 0.537,-0.027C0.554,-0.008 0.562,0.017 0.562,0.047C0.562,0.072 0.555,0.096 0.541,0.118C0.527,0.14 0.507,0.158 0.481,0.174C0.456,0.19 0.425,0.203 0.389,0.212C0.353,0.221 0.312,0.225 0.268,0.225ZM0.288,0.131C0.331,0.131 0.365,0.125 0.39,0.113C0.415,0.101 0.427,0.086 0.427,0.067C0.427,0.052 0.419,0.041 0.404,0.033C0.388,0.025 0.364,0.02 0.331,0.017L0.236,0.01C0.218,0.012 0.203,0.015 0.19,0.02C0.177,0.025 0.168,0.032 0.161,0.04C0.154,0.048 0.151,0.057 0.151,0.067C0.151,0.08 0.157,0.091 0.168,0.101C0.179,0.11 0.195,0.118 0.215,0.123C0.235,0.128 0.26,0.131 0.288,0.131ZM0.282,-0.158C0.238,-0.158 0.199,-0.166 0.165,-0.182C0.131,-0.198 0.104,-0.22 0.085,-0.247C0.066,-0.274 0.056,-0.305 0.056,-0.339C0.056,-0.373 0.066,-0.403 0.085,-0.431C0.105,-0.458 0.132,-0.48 0.166,-0.496C0.2,-0.512 0.238,-0.52 0.282,-0.52C0.325,-0.52 0.363,-0.512 0.397,-0.496C0.431,-0.48 0.458,-0.458 0.477,-0.431C0.497,-0.404 0.507,-0.373 0.507,-0.339C0.507,-0.306 0.497,-0.275 0.478,-0.248C0.458,-0.22 0.432,-0.199 0.398,-0.182C0.364,-0.166 0.325,-0.158 0.282,-0.158ZM0.282,-0.26C0.301,-0.26 0.318,-0.263 0.333,-0.27C0.348,-0.276 0.36,-0.286 0.369,-0.298C0.377,-0.31 0.382,-0.324 0.382,-0.339C0.382,-0.363 0.372,-0.382 0.353,-0.397C0.334,-0.412 0.31,-0.419 0.282,-0.419C0.262,-0.419 0.245,-0.416 0.23,-0.409C0.215,-0.402 0.203,-0.393 0.194,-0.381C0.186,-0.369 0.181,-0.355 0.181,-0.339C0.181,-0.316 0.191,-0.297 0.21,-0.282C0.229,-0.267 0.253,-0.26 0.282,-0.26ZM0.358,-0.394L0.303,-0.491L0.593,-0.505L0.593,-0.388L0.358,-0.394Z" style="fill:rgb(135,230,93);fill-rule:nonzero;"/>
                    </g>
                </g>
            </g>
        </g>
    </g>
</svg>
