<?xml version="1.0" encoding="UTF-8" ?>
<!DOCTYPE svg PUBLIC "-//W3C//DTD SVG 1.1//EN" "http://www.w3.org/Graphics/SVG/1.1/DTD/svg11.dtd">
<svg width="1400pt" height="895pt" viewBox="0 0 1400 895" version="1.1" xmlns="http://www.w3.org/2000/svg">
<g id="#00fb22fb">
<path fill="#00fb22" opacity="1.00" d=" M 6.31 0.00 L 12.86 0.00 C 19.86 7.21 26.58 14.68 33.47 22.00 C 143.23 21.99 252.98 22.03 362.74 21.98 C 359.34 14.64 355.92 7.32 352.49 0.00 L 357.78 0.00 C 361.34 7.28 364.61 14.70 368.13 22.00 C 478.16 21.99 588.20 22.01 698.23 21.99 C 698.24 14.66 698.23 7.33 698.23 0.00 L 703.00 0.00 C 703.00 7.33 703.00 14.66 703.00 22.00 C 808.34 22.00 913.68 22.00 1019.01 22.00 C 1023.86 21.96 1028.70 22.10 1033.55 21.88 C 1036.80 14.53 1040.26 7.26 1043.71 0.00 L 1049.03 0.00 C 1045.55 7.30 1042.19 14.65 1038.75 21.96 C 1148.51 22.04 1258.26 21.99 1368.01 21.99 C 1374.91 14.69 1381.64 7.23 1388.62 0.00 L 1395.16 0.00 C 1388.37 7.35 1381.47 14.61 1374.71 21.99 C 1383.14 22.01 1391.57 22.00 1400.00 22.00 L 1400.00 26.76 C 1390.09 26.79 1380.18 26.72 1370.28 26.80 C 1355.70 42.12 1341.33 57.63 1326.79 72.98 C 1351.19 73.03 1375.59 72.99 1400.00 73.00 L 1400.00 77.76 C 1374.08 77.80 1348.17 77.70 1322.26 77.81 C 1310.00 91.13 1297.49 104.21 1285.21 117.50 C 1323.47 117.47 1361.74 117.50 1400.00 117.49 L 1400.00 122.25 C 1360.21 122.26 1320.42 122.24 1280.64 122.27 C 1270.16 133.84 1259.42 145.18 1248.94 156.76 C 1299.30 156.73 1349.65 156.75 1400.00 156.75 L 1400.00 161.51 C 1348.21 161.49 1296.41 161.55 1244.62 161.48 C 1235.22 171.30 1225.98 181.28 1216.73 191.23 C 1277.82 191.24 1338.91 191.23 1400.00 191.23 L 1400.00 196.00 C 1337.37 196.01 1274.74 195.97 1212.11 196.02 C 1204.19 204.56 1196.22 213.06 1188.19 221.50 C 1258.79 221.47 1329.40 221.50 1400.00 221.49 L 1400.00 226.25 C 1328.68 226.24 1257.35 226.28 1186.03 226.23 C 1184.73 226.13 1183.40 226.39 1182.61 227.49 C 1176.00 234.50 1169.40 241.51 1162.76 248.48 C 1234.83 248.51 1306.90 248.46 1378.97 248.51 C 1381.45 248.37 1384.34 249.11 1386.39 247.24 C 1390.89 243.98 1395.54 240.90 1400.00 237.56 L 1400.00 243.44 C 1397.67 245.17 1395.26 246.77 1392.93 248.48 C 1395.27 248.49 1397.63 248.49 1400.00 248.49 L 1400.00 253.25 C 1395.45 253.25 1390.90 253.27 1386.36 253.23 C 1377.08 259.83 1367.86 266.52 1358.65 273.21 C 1372.43 273.26 1386.21 273.22 1400.00 273.23 L 1400.00 278.00 C 1383.95 278.00 1367.91 278.00 1351.87 278.00 C 1343.74 283.93 1335.58 289.81 1327.46 295.74 C 1351.64 295.75 1375.82 295.74 1400.00 295.75 L 1400.00 300.51 C 1373.60 300.50 1347.19 300.52 1320.79 300.50 C 1313.70 305.39 1306.62 310.29 1299.56 315.20 C 1333.04 315.28 1366.52 315.21 1400.00 315.23 L 1400.00 320.00 C 1366.00 319.99 1332.00 320.02 1298.00 319.98 C 1295.67 320.12 1292.98 319.42 1291.10 321.16 C 1285.19 325.46 1279.26 329.73 1273.34 333.99 C 1315.56 334.01 1357.78 333.99 1400.00 334.00 L 1400.00 338.76 C 1356.32 338.75 1312.63 338.79 1268.95 338.75 C 1267.44 338.58 1266.08 339.06 1264.96 340.00 C 1259.95 343.59 1254.94 347.19 1249.92 350.75 C 1299.94 350.73 1349.97 350.75 1400.00 350.75 L 1400.00 355.51 C 1347.75 355.51 1295.51 355.52 1243.26 355.50 C 1238.25 359.18 1233.19 362.77 1228.21 366.48 C 1282.47 366.52 1336.73 366.46 1390.99 366.51 C 1394.42 366.74 1397.12 364.22 1400.00 362.74 L 1400.00 371.23 C 1397.65 371.31 1395.13 370.85 1393.02 372.10 C 1387.71 374.88 1382.39 377.63 1377.09 380.43 C 1384.72 380.55 1392.36 380.46 1400.00 380.49 L 1400.00 385.25 C 1389.41 385.34 1378.81 385.10 1368.24 385.36 C 1362.67 387.81 1357.54 391.23 1352.09 393.95 C 1368.06 394.06 1384.03 393.97 1400.00 394.00 L 1400.00 398.76 C 1381.07 398.87 1362.12 398.56 1343.20 398.91 C 1338.34 401.20 1333.72 403.99 1328.96 406.49 C 1352.64 406.50 1376.32 406.49 1400.00 406.49 L 1400.00 411.25 C 1373.41 411.33 1346.81 411.11 1320.22 411.36 C 1315.84 413.08 1311.81 415.63 1307.61 417.76 C 1338.41 417.72 1369.20 417.76 1400.00 417.75 L 1400.00 422.51 C 1366.64 422.52 1333.27 422.49 1299.91 422.52 C 1295.51 423.24 1291.96 426.47 1287.94 428.24 C 1325.29 428.23 1362.64 428.24 1400.00 428.23 L 1400.00 433.00 C 1359.97 433.02 1319.94 432.95 1279.91 433.03 C 1275.89 433.97 1272.58 436.82 1268.84 438.52 C 1311.58 438.44 1354.32 438.53 1397.06 438.48 C 1398.04 438.40 1399.02 438.23 1400.00 437.96 L 1400.00 443.15 C 1394.01 443.97 1387.96 443.34 1381.97 443.12 C 1341.98 443.16 1302.00 443.08 1262.02 443.16 C 1256.32 443.73 1250.62 443.49 1244.94 443.12 C 1204.28 443.15 1163.61 443.09 1122.95 443.15 C 1118.34 443.56 1113.71 443.63 1109.11 443.16 C 1078.07 443.08 1047.03 443.15 1015.99 443.13 C 1002.99 443.28 989.96 442.76 976.98 443.50 C 967.33 442.79 957.65 443.26 947.98 443.13 C 868.95 443.15 789.98 443.15 710.95 443.12 C 705.98 442.92 701.02 443.84 696.07 443.18 C 666.71 443.06 637.35 443.16 607.99 443.13 C 592.67 443.30 577.32 442.75 562.02 443.47 C 548.69 442.73 535.32 443.31 521.98 443.13 C 491.31 443.16 460.63 443.07 429.96 443.17 C 424.30 443.92 418.64 442.94 412.97 443.12 C 379.98 443.14 347.00 443.12 314.01 443.13 C 304.68 443.22 295.34 442.83 286.03 443.53 C 272.37 442.75 258.67 443.28 244.99 443.13 C 215.00 443.16 185.00 443.07 155.01 443.17 C 147.68 444.05 140.34 442.91 133.00 443.12 C 97.02 443.13 61.03 443.13 25.05 443.13 C 16.70 442.86 8.33 444.24 0.00 443.04 L 0.00 437.18 C 1.59 437.86 3.23 438.61 5.01 438.51 C 47.53 438.48 90.06 438.48 132.59 438.51 C 128.11 436.54 124.17 432.38 118.94 432.98 C 79.29 433.03 39.65 432.98 0.00 433.00 L 0.00 428.23 C 37.85 428.22 75.71 428.26 113.56 428.21 C 109.70 426.42 106.20 423.56 102.04 422.55 C 68.03 422.46 34.01 422.54 0.00 422.51 L 0.00 417.75 C 31.30 417.70 62.61 417.83 93.91 417.68 C 89.52 415.67 85.49 412.71 80.87 411.32 C 53.92 411.17 26.96 411.30 0.00 411.25 L 0.00 406.49 C 24.19 406.49 48.39 406.48 72.58 406.50 C 67.78 403.95 63.15 401.01 58.15 398.89 C 38.77 398.60 19.38 398.85 0.00 398.77 L 0.00 394.00 C 16.44 393.98 32.89 394.04 49.33 393.97 C 44.08 391.14 38.98 388.00 33.60 385.43 C 22.42 385.01 11.20 385.38 0.00 385.25 L 0.00 380.49 C 8.20 380.50 16.41 380.46 24.61 380.51 C 19.35 377.69 14.03 374.97 8.76 372.17 C 6.11 370.61 2.91 371.41 0.00 371.26 L 0.00 361.91 C 3.56 363.61 6.83 366.78 11.02 366.52 C 65.11 366.44 119.20 366.54 173.29 366.47 C 168.26 362.81 163.26 359.12 158.21 355.50 C 105.47 355.52 52.74 355.51 0.00 355.51 L 0.00 350.75 C 50.51 350.74 101.03 350.75 151.54 350.74 C 146.00 346.70 140.40 342.77 134.83 338.77 C 89.89 338.76 44.94 338.77 0.00 338.77 L 0.00 334.00 C 42.69 333.99 85.38 334.01 128.07 333.99 C 121.64 329.30 115.16 324.68 108.72 320.00 C 72.48 320.00 36.24 320.00 0.00 320.00 L 0.00 315.24 C 34.02 315.24 68.03 315.22 102.05 315.25 C 94.97 310.31 87.87 305.40 80.76 300.50 C 53.84 300.52 26.92 300.51 0.00 300.51 L 0.00 295.75 C 24.69 295.74 49.38 295.76 74.07 295.73 C 66.38 290.09 58.62 284.54 50.94 278.90 C 49.85 277.89 48.34 278.01 46.97 277.98 C 31.31 278.02 15.66 277.99 0.00 278.00 L 0.00 273.24 C 14.31 273.22 28.62 273.27 42.94 273.21 C 34.40 267.01 25.81 260.87 17.28 254.65 C 16.31 253.99 15.32 253.16 14.06 253.27 C 9.37 253.17 4.69 253.30 0.00 253.25 L 0.00 248.49 C 2.84 248.49 5.67 248.49 8.51 248.49 C 5.71 246.42 2.80 244.50 0.00 242.43 L 0.00 236.50 C 5.66 240.47 11.20 244.66 17.04 248.36 C 90.95 248.67 164.88 248.39 238.81 248.50 C 231.72 241.13 224.80 233.59 217.69 226.24 C 145.13 226.28 72.56 226.24 0.00 226.25 L 0.00 221.49 C 71.09 221.50 142.18 221.47 213.27 221.50 C 205.45 212.97 197.31 204.72 189.60 196.10 C 126.40 195.87 63.20 196.06 0.00 196.00 L 0.00 191.24 C 61.60 191.22 123.19 191.26 184.79 191.21 C 175.66 181.23 166.28 171.47 157.12 161.52 C 104.75 161.50 52.37 161.52 0.00 161.51 L 0.00 156.75 C 50.86 156.71 101.72 156.82 152.59 156.69 C 142.05 145.17 131.40 133.75 120.84 122.25 C 80.56 122.26 40.28 122.25 0.00 122.25 L 0.00 117.49 C 38.74 117.48 77.49 117.51 116.23 117.48 C 103.99 104.11 91.51 90.96 79.10 77.74 C 52.73 77.80 26.37 77.75 0.00 77.77 L 0.00 73.00 C 24.89 72.98 49.78 73.03 74.68 72.97 C 60.13 57.58 45.77 42.03 31.11 26.75 C 20.74 26.78 10.37 26.76 0.00 26.77 L 0.00 22.00 C 8.93 22.00 17.86 22.00 26.80 22.00 C 19.99 14.65 13.16 7.31 6.31 0.00 M 37.97 26.75 C 52.33 42.26 66.91 57.57 81.34 73.00 C 183.13 73.00 284.92 73.00 386.72 73.00 C 379.44 57.61 372.19 42.20 365.00 26.77 C 255.99 26.75 146.98 26.78 37.97 26.75 M 370.38 26.80 C 377.65 42.19 384.78 57.65 392.14 73.00 C 494.26 72.99 596.37 73.01 698.49 73.00 C 698.49 57.59 698.50 42.18 698.48 26.77 C 589.12 26.77 479.75 26.73 370.38 26.80 M 703.26 26.78 C 703.25 42.18 703.26 57.59 703.25 72.99 C 805.37 72.96 907.49 73.10 1009.61 72.92 C 1016.65 57.46 1024.02 42.16 1031.20 26.77 C 921.89 26.77 812.57 26.75 703.26 26.78 M 1036.37 26.88 C 1029.35 42.33 1021.98 57.62 1014.80 73.00 C 1116.57 73.01 1218.35 72.98 1320.12 73.02 C 1334.58 57.60 1349.14 42.27 1363.51 26.77 C 1254.46 26.84 1145.41 26.61 1036.37 26.88 M 85.84 77.80 C 98.30 91.01 110.59 104.39 123.15 117.51 C 217.94 117.45 312.72 117.54 407.51 117.46 C 401.32 104.22 395.09 91.00 388.90 77.76 C 287.88 77.79 186.86 77.72 85.84 77.80 M 394.30 77.75 C 400.48 91.01 406.72 104.23 412.91 117.49 C 508.10 117.49 603.29 117.49 698.48 117.48 C 698.49 104.25 698.49 91.01 698.48 77.77 C 597.09 77.75 495.69 77.79 394.30 77.75 M 703.25 77.78 C 703.27 91.02 703.23 104.26 703.27 117.50 C 798.41 117.46 893.55 117.54 988.69 117.45 C 994.78 104.19 1001.13 91.05 1007.21 77.78 C 905.89 77.76 804.57 77.75 703.25 77.78 M 993.95 117.46 C 1088.79 117.56 1183.63 117.42 1278.47 117.53 C 1290.95 104.30 1303.31 90.97 1315.80 77.75 C 1214.74 77.77 1113.68 77.77 1012.62 77.75 C 1006.36 90.97 1000.23 104.25 993.95 117.46 M 127.45 122.23 C 138.12 133.71 148.66 145.31 159.36 156.76 C 248.14 156.74 336.93 156.73 425.71 156.76 C 420.37 145.26 415.11 133.73 409.75 122.24 C 315.65 122.26 221.55 122.28 127.45 122.23 M 415.15 122.28 C 420.45 133.77 425.71 145.27 431.04 156.75 C 520.18 156.75 609.33 156.74 698.48 156.75 C 698.51 145.26 698.47 133.77 698.50 122.27 C 604.05 122.25 509.60 122.23 415.15 122.28 M 703.26 122.26 C 703.25 133.75 703.25 145.25 703.26 156.74 C 792.35 156.74 881.44 156.77 970.53 156.73 C 975.85 145.24 981.09 133.71 986.47 122.24 C 892.07 122.27 797.66 122.24 703.26 122.26 M 991.62 122.36 C 986.54 133.88 981.10 145.25 975.88 156.71 C 1064.69 156.76 1153.50 156.79 1242.31 156.70 C 1252.86 145.18 1263.54 133.77 1274.05 122.20 C 1179.91 122.39 1085.76 122.09 991.62 122.36 M 163.72 161.49 C 173.07 171.42 182.23 181.55 191.77 191.29 C 275.12 191.16 358.47 191.28 441.82 191.23 C 437.14 181.33 432.57 171.39 427.88 161.50 C 339.82 161.51 251.77 161.53 163.72 161.49 M 433.31 161.50 C 437.92 171.42 442.54 181.33 447.23 191.21 C 530.98 191.26 614.73 191.23 698.48 191.23 C 698.50 181.32 698.50 171.42 698.48 161.51 C 610.09 161.50 521.70 161.52 433.31 161.50 M 703.25 161.52 C 703.26 171.42 703.25 181.32 703.25 191.22 C 787.00 191.19 870.75 191.35 954.50 191.14 C 958.92 181.20 963.70 171.42 968.23 161.53 C 879.91 161.50 791.58 161.50 703.25 161.52 M 959.69 191.21 C 1043.10 191.27 1126.52 191.21 1209.94 191.24 C 1219.21 181.31 1228.45 171.34 1237.82 161.50 C 1149.76 161.48 1061.70 161.59 973.65 161.45 C 968.89 171.31 964.29 181.27 959.69 191.21 M 195.91 196.00 C 203.93 204.46 211.88 213.00 219.87 221.50 C 298.56 221.48 377.26 221.48 455.95 221.50 C 452.02 212.97 447.99 204.49 444.00 196.00 C 361.30 196.00 278.61 196.00 195.91 196.00 M 449.41 196.00 C 453.39 204.48 457.41 212.95 461.32 221.46 C 540.37 221.52 619.43 221.48 698.48 221.48 C 698.49 212.99 698.49 204.50 698.49 196.00 C 615.46 196.00 532.44 196.00 449.41 196.00 M 703.25 196.01 C 703.34 204.53 703.08 213.06 703.38 221.58 C 782.29 221.37 861.21 221.55 940.12 221.49 C 944.20 213.04 948.13 204.52 952.12 196.03 C 869.16 195.97 786.21 196.01 703.25 196.01 M 957.35 196.10 C 953.57 204.63 949.40 212.98 945.55 221.49 C 1024.29 221.46 1103.02 221.56 1181.75 221.44 C 1189.55 212.83 1197.59 204.43 1205.57 196.00 C 1122.83 196.07 1040.09 195.87 957.35 196.10 M 224.46 226.22 C 231.22 233.75 238.49 240.82 245.16 248.42 C 319.67 248.59 394.18 248.44 468.70 248.49 C 465.40 241.07 461.64 233.85 458.43 226.39 C 380.45 226.05 302.45 226.39 224.46 226.22 M 463.58 226.30 C 467.15 233.67 470.55 241.14 474.14 248.51 C 548.92 248.46 623.70 248.51 698.48 248.48 C 698.50 241.08 698.48 233.68 698.50 226.27 C 620.19 226.26 541.88 226.21 463.58 226.30 M 703.26 226.26 C 703.26 233.67 703.23 241.08 703.27 248.50 C 778.04 248.39 852.81 248.67 927.57 248.36 C 930.89 240.94 934.42 233.61 937.94 226.28 C 859.71 226.22 781.49 226.27 703.26 226.26 M 943.26 226.24 C 939.80 233.66 936.20 241.01 932.81 248.46 C 1007.23 248.55 1081.66 248.44 1156.08 248.51 C 1163.06 241.07 1170.13 233.71 1177.06 226.21 C 1099.13 226.30 1021.19 226.24 943.26 226.24 M 23.63 253.27 C 32.80 259.97 42.07 266.52 51.22 273.23 C 121.32 273.24 191.41 273.24 261.50 273.23 C 256.05 267.07 250.32 261.15 244.82 255.03 C 244.05 254.22 243.29 253.01 241.98 253.26 C 169.20 253.26 96.41 253.24 23.63 253.27 M 249.89 253.33 C 256.02 259.96 262.17 266.58 268.29 273.22 C 338.93 273.26 409.56 273.22 480.20 273.23 C 477.06 266.60 474.06 259.89 470.93 253.25 C 397.25 253.30 323.57 253.16 249.89 253.33 M 476.34 253.27 C 479.46 259.92 482.44 266.64 485.63 273.25 C 556.58 273.21 627.53 273.26 698.48 273.23 C 698.49 266.57 698.50 259.91 698.48 253.25 C 624.43 253.27 550.39 253.23 476.34 253.27 M 703.26 253.26 C 703.25 259.91 703.26 266.57 703.25 273.23 C 774.17 273.25 845.08 273.23 916.00 273.24 C 919.07 266.57 922.15 259.91 925.19 253.23 C 851.21 253.29 777.24 253.24 703.26 253.26 M 930.53 253.25 C 927.47 259.93 924.41 266.60 921.29 273.25 C 991.90 273.23 1062.50 273.22 1133.11 273.25 C 1139.32 266.66 1145.48 260.02 1151.56 253.31 C 1077.89 253.19 1004.21 253.29 930.53 253.25 M 1158.36 253.24 C 1152.16 259.86 1146.02 266.54 1139.88 273.22 C 1209.60 273.25 1279.32 273.23 1349.05 273.23 C 1350.45 273.38 1351.47 272.18 1352.60 271.52 C 1361.00 265.40 1369.47 259.36 1377.89 253.27 C 1304.72 253.23 1231.54 253.28 1158.36 253.24 M 58.02 278.05 C 66.18 283.90 74.28 289.83 82.42 295.73 C 149.06 295.76 215.71 295.74 282.35 295.74 C 277.04 289.74 271.51 283.94 266.14 277.99 C 196.77 278.04 127.39 277.93 58.02 278.05 M 272.88 278.04 C 278.31 283.96 283.72 289.91 289.20 295.78 C 356.32 295.69 423.44 295.79 490.56 295.73 C 487.94 289.86 485.10 284.08 482.59 278.16 C 480.71 278.01 478.83 277.97 476.95 277.99 C 408.93 278.04 340.90 277.94 272.88 278.04 M 487.81 278.00 C 490.57 283.91 493.21 289.88 496.03 295.76 C 563.52 295.70 631.02 295.80 698.51 295.71 C 698.47 289.81 698.50 283.90 698.49 278.00 C 628.26 278.00 558.03 278.00 487.81 278.00 M 703.25 278.01 C 703.26 283.92 703.25 289.83 703.26 295.74 C 770.70 295.76 838.15 295.72 905.60 295.76 C 908.26 289.82 911.04 283.94 913.71 278.00 C 843.56 278.00 773.40 277.99 703.25 278.01 M 919.14 278.00 C 916.30 283.87 913.63 289.82 910.95 295.77 C 978.16 295.67 1045.37 295.86 1112.58 295.67 C 1117.92 289.71 1123.33 283.81 1128.83 277.99 C 1058.93 278.01 989.03 278.00 919.14 278.00 M 1135.31 278.02 C 1129.92 283.94 1124.52 289.84 1119.08 295.71 C 1184.70 295.81 1250.32 295.69 1315.95 295.77 C 1317.27 295.66 1318.86 296.08 1319.98 295.07 C 1327.79 289.40 1335.63 283.75 1343.41 278.04 C 1274.04 277.97 1204.68 278.00 1135.31 278.02 M 89.22 300.54 C 96.38 305.41 103.35 310.58 110.67 315.18 C 174.13 315.31 237.60 315.18 301.06 315.25 C 296.29 310.32 291.66 305.25 286.74 300.47 C 220.90 300.58 155.06 300.45 89.22 300.54 M 293.64 300.56 C 298.26 305.55 303.08 310.34 307.78 315.27 C 371.85 315.20 435.92 315.24 499.99 315.25 C 497.51 310.37 495.22 305.41 492.84 300.48 C 426.44 300.58 360.04 300.42 293.64 300.56 M 498.15 300.51 C 500.55 305.39 502.93 310.27 505.21 315.21 C 569.63 315.27 634.05 315.22 698.48 315.23 C 698.50 310.32 698.50 305.42 698.48 300.51 C 631.70 300.51 564.93 300.51 498.15 300.51 M 703.26 315.23 C 767.58 315.25 831.90 315.23 896.22 315.23 C 898.68 310.37 901.01 305.45 903.32 300.51 C 836.66 300.47 769.99 300.58 703.33 300.46 C 703.17 305.38 703.28 310.30 703.26 315.23 M 901.55 315.24 C 965.59 315.21 1029.64 315.28 1093.68 315.20 C 1098.43 310.34 1103.20 305.50 1107.79 300.49 C 1041.40 300.53 975.01 300.51 908.62 300.50 C 906.30 305.43 903.94 310.34 901.55 315.24 M 1100.44 315.22 C 1163.64 315.24 1226.84 315.24 1290.03 315.22 C 1291.42 315.38 1292.41 314.18 1293.55 313.55 C 1299.81 309.18 1306.14 304.90 1312.39 300.49 C 1246.48 300.51 1180.56 300.54 1114.65 300.48 C 1109.94 305.42 1105.22 310.36 1100.44 315.22 M 117.20 320.01 C 123.57 324.72 130.09 329.21 136.41 333.96 C 197.13 334.05 257.85 333.97 318.56 334.01 C 314.21 329.41 309.89 324.76 305.68 320.03 C 242.86 319.97 180.03 320.01 117.20 320.01 M 312.18 319.99 C 316.51 324.62 320.88 329.22 325.08 333.98 C 386.25 334.01 447.43 334.01 508.60 333.98 C 506.47 329.30 504.32 324.63 502.11 319.99 C 438.80 320.00 375.49 320.01 312.18 319.99 M 507.54 320.00 C 509.67 324.68 511.91 329.30 514.01 333.99 C 575.50 334.01 636.99 334.00 698.49 334.00 C 698.49 329.33 698.49 324.67 698.49 320.00 C 634.84 320.00 571.19 320.00 507.54 320.00 M 703.25 320.01 C 703.25 324.67 703.25 329.33 703.25 333.99 C 764.71 334.00 826.18 334.00 887.64 333.99 C 889.69 329.28 891.93 324.66 894.09 320.00 C 830.47 320.01 766.86 319.99 703.25 320.01 M 899.37 320.01 C 897.28 324.70 895.06 329.33 892.91 334.00 C 952.93 334.01 1012.95 333.98 1072.97 334.02 C 1074.30 333.80 1076.17 334.51 1077.14 333.23 C 1081.16 328.78 1085.22 324.38 1089.30 320.00 C 1025.99 320.01 962.68 319.99 899.37 320.01 M 1096.05 320.00 C 1091.67 324.61 1087.43 329.35 1083.05 333.97 C 1143.69 334.03 1204.33 333.99 1264.97 333.99 C 1271.44 329.34 1277.92 324.70 1284.38 320.03 C 1221.60 319.96 1158.83 320.02 1096.05 320.00 M 143.34 338.80 C 148.95 342.72 154.37 346.96 160.11 350.68 C 218.08 350.85 276.07 350.67 334.05 350.77 C 330.42 346.69 326.66 342.73 322.91 338.76 C 263.05 338.80 203.20 338.72 143.34 338.80 M 329.55 338.81 C 333.23 342.78 337.02 346.65 340.59 350.71 C 399.14 350.80 457.69 350.69 516.24 350.77 C 514.70 346.65 512.57 342.79 510.77 338.78 C 450.37 338.77 389.96 338.72 329.55 338.81 M 516.19 338.78 C 517.93 342.77 519.89 346.66 521.62 350.65 C 580.49 350.87 639.36 350.69 698.23 350.74 C 698.24 346.75 698.24 342.76 698.23 338.77 C 637.55 338.76 576.87 338.75 516.19 338.78 M 703.26 338.78 C 703.25 342.76 703.25 346.75 703.26 350.74 C 762.09 350.76 820.92 350.73 879.75 350.76 C 881.61 346.77 883.52 342.81 885.31 338.79 C 824.63 338.74 763.94 338.77 703.26 338.78 M 885.04 350.78 C 943.57 350.71 1002.11 350.75 1060.64 350.76 C 1064.37 346.78 1068.13 342.83 1071.77 338.76 C 1011.39 338.76 951.01 338.78 890.63 338.75 C 888.75 342.75 886.88 346.76 885.04 350.78 M 1067.46 350.77 C 1125.49 350.70 1183.52 350.77 1241.56 350.74 C 1247.15 346.77 1252.73 342.77 1258.31 338.77 C 1198.45 338.72 1138.59 338.83 1078.73 338.72 C 1074.87 342.64 1071.18 346.72 1067.46 350.77 M 1062.93 355.53 C 1059.62 359.20 1056.23 362.80 1052.97 366.51 C 1108.56 366.47 1164.16 366.48 1219.76 366.51 C 1224.84 362.89 1229.89 359.20 1234.91 355.49 C 1177.59 355.55 1120.26 355.47 1062.93 355.53 M 166.64 355.48 C 171.82 359.06 176.69 363.30 182.10 366.43 C 237.57 366.58 293.05 366.43 348.53 366.51 C 345.29 362.77 341.82 359.24 338.58 355.52 C 281.26 355.48 223.95 355.55 166.64 355.48 M 345.19 355.49 C 348.58 359.08 351.95 362.69 355.18 366.43 C 411.35 366.58 467.52 366.44 523.69 366.50 C 522.05 362.81 520.35 359.16 518.69 355.49 C 460.85 355.52 403.02 355.52 345.19 355.49 M 524.06 355.50 C 525.73 359.16 527.33 362.87 529.10 366.50 C 585.56 366.47 642.02 366.51 698.48 366.48 C 698.49 362.83 698.49 359.17 698.48 355.52 C 640.34 355.49 582.20 355.53 524.06 355.50 M 703.33 366.54 C 759.75 366.38 816.18 366.62 872.60 366.42 C 874.14 362.75 875.88 359.17 877.45 355.52 C 819.42 355.46 761.38 355.59 703.35 355.45 C 703.19 359.14 703.21 362.84 703.33 366.54 M 877.82 366.46 C 933.92 366.54 990.02 366.45 1046.12 366.51 C 1049.54 362.86 1052.86 359.13 1056.28 355.49 C 998.48 355.53 940.67 355.50 882.87 355.51 C 881.12 359.13 879.48 362.80 877.82 366.46 M 17.06 371.25 C 22.51 373.95 27.86 376.87 33.28 379.66 C 35.29 380.91 37.73 380.42 39.96 380.50 C 91.06 380.48 142.16 380.49 193.26 380.50 C 188.83 377.41 184.47 374.21 179.91 371.33 C 125.63 371.15 71.34 371.31 17.06 371.25 M 188.47 371.22 C 192.88 374.36 197.26 377.60 201.88 380.43 C 255.18 380.59 308.48 380.42 361.79 380.51 C 358.91 377.36 356.01 374.13 352.86 371.32 C 298.07 371.15 243.26 371.35 188.47 371.22 M 359.69 371.24 C 362.72 374.30 365.53 377.57 368.69 380.51 C 422.57 380.46 476.46 380.52 530.34 380.48 C 528.80 377.42 527.31 374.34 525.86 371.23 C 470.47 371.27 415.08 371.27 359.69 371.24 M 531.28 371.24 C 532.74 374.34 534.18 377.45 535.76 380.49 C 590.00 380.49 644.24 380.50 698.49 380.48 C 698.48 377.43 698.48 374.37 698.53 371.32 C 642.78 371.16 587.03 371.32 531.28 371.24 M 703.01 371.25 C 703.00 374.33 702.99 377.41 703.00 380.49 C 757.26 380.48 811.51 380.51 865.77 380.47 C 867.31 377.43 868.77 374.34 870.20 371.24 C 814.47 371.28 758.74 371.25 703.01 371.25 M 875.59 371.28 C 874.08 374.33 872.58 377.39 871.18 380.50 C 925.07 380.49 978.96 380.47 1032.85 380.51 C 1035.91 377.49 1038.73 374.23 1041.85 371.26 C 986.43 371.26 931.01 371.23 875.59 371.28 M 1048.36 371.24 C 1045.55 374.40 1042.44 377.27 1039.64 380.44 C 1092.96 380.53 1146.28 380.53 1199.59 380.44 C 1204.27 377.67 1208.55 374.25 1213.10 371.26 C 1158.18 371.24 1103.27 371.27 1048.36 371.24 M 1221.44 371.26 C 1217.07 374.39 1212.61 377.38 1208.22 380.49 C 1260.49 380.49 1312.75 380.48 1365.02 380.50 C 1366.50 380.64 1367.80 379.85 1369.10 379.22 C 1374.16 376.56 1379.21 373.91 1384.29 371.28 C 1330.01 371.23 1275.73 371.26 1221.44 371.26 M 43.91 385.32 C 49.25 388.13 54.40 391.37 59.86 393.93 C 110.50 394.08 161.15 393.96 211.79 393.99 C 207.78 391.11 203.96 387.93 199.77 385.32 C 147.82 385.20 95.86 385.22 43.91 385.32 M 208.34 385.28 C 212.29 388.18 216.26 391.06 220.19 394.00 C 271.56 394.00 322.92 394.00 374.29 394.00 C 371.71 391.12 369.03 388.33 366.58 385.33 C 313.84 385.17 261.09 385.27 208.34 385.28 M 372.94 385.22 C 375.58 388.12 378.30 390.96 380.81 393.98 C 432.70 394.01 484.58 394.02 536.46 393.98 C 535.20 391.06 533.85 388.18 532.54 385.28 C 479.34 385.19 426.14 385.33 372.94 385.22 M 537.95 385.23 C 539.21 388.17 540.57 391.07 541.88 394.00 C 594.08 394.00 646.28 394.00 698.49 394.00 C 698.49 391.08 698.49 388.16 698.48 385.25 C 644.97 385.24 591.46 385.28 537.95 385.23 M 703.26 385.26 C 703.25 388.17 703.25 391.08 703.25 393.99 C 755.40 394.00 807.54 394.01 859.68 393.98 C 860.98 391.09 862.29 388.20 863.60 385.31 C 810.15 385.18 756.70 385.29 703.26 385.26 M 869.03 385.24 C 867.63 388.13 866.35 391.09 864.95 393.98 C 916.81 394.01 968.67 394.01 1020.52 393.99 C 1023.12 391.07 1025.84 388.26 1028.34 385.26 C 975.24 385.24 922.13 385.28 869.03 385.24 M 1035.17 385.23 C 1032.44 388.08 1029.82 391.03 1027.20 393.99 C 1078.51 394.01 1129.82 393.99 1181.13 394.00 C 1185.12 391.11 1189.08 388.17 1193.06 385.27 C 1140.43 385.22 1087.80 385.30 1035.17 385.23 M 1201.40 385.27 C 1197.49 388.23 1193.49 391.03 1189.59 393.98 C 1239.75 394.02 1289.92 393.98 1340.09 394.01 C 1341.21 394.09 1342.26 393.82 1343.23 393.20 C 1348.00 390.52 1352.83 387.92 1357.61 385.23 C 1305.54 385.29 1253.47 385.22 1201.40 385.27 M 68.67 398.76 C 73.47 401.28 78.13 404.09 83.03 406.41 C 131.79 406.58 180.55 406.47 229.31 406.46 C 226.43 404.41 223.55 402.36 220.71 400.28 C 219.60 399.61 218.56 398.45 217.13 398.76 C 167.64 398.78 118.15 398.76 68.67 398.76 M 227.05 398.79 C 230.62 401.35 234.19 403.92 237.77 406.49 C 287.13 406.47 336.49 406.53 385.85 406.46 C 383.50 403.88 381.14 401.30 378.71 398.79 C 328.16 398.74 277.60 398.75 227.05 398.79 M 385.49 398.78 C 387.81 401.42 390.20 404.01 392.67 406.52 C 442.56 406.44 492.44 406.52 542.32 406.49 C 541.10 403.94 539.91 401.38 538.77 398.80 C 487.68 398.73 436.59 398.77 385.49 398.78 M 544.13 398.79 C 545.31 401.37 546.48 403.95 547.75 406.50 C 597.99 406.48 648.23 406.49 698.48 406.49 C 698.49 403.91 698.49 401.34 698.48 398.77 C 647.03 398.78 595.58 398.73 544.13 398.79 M 703.26 398.78 C 703.25 401.34 703.25 403.91 703.25 406.48 C 753.46 406.51 803.67 406.48 853.88 406.49 C 855.05 403.91 856.25 401.34 857.43 398.76 C 806.04 398.78 754.65 398.75 703.26 398.78 M 859.17 406.50 C 909.07 406.49 958.97 406.47 1008.86 406.51 C 1011.30 403.98 1013.72 401.44 1016.01 398.77 C 964.94 398.75 913.88 398.80 862.81 398.74 C 861.58 401.32 860.41 403.92 859.17 406.50 M 1015.43 406.49 C 1064.83 406.51 1114.24 406.45 1163.65 406.52 C 1167.26 403.99 1170.83 401.40 1174.39 398.80 C 1123.86 398.76 1073.33 398.71 1022.81 398.82 C 1020.17 401.20 1017.99 404.04 1015.43 406.49 M 1172.07 406.52 C 1220.39 406.45 1268.71 406.50 1317.03 406.50 C 1318.02 406.55 1318.95 406.32 1319.83 405.81 C 1324.16 403.45 1328.51 401.11 1332.85 398.75 C 1282.90 398.83 1232.94 398.66 1182.99 398.84 C 1179.19 401.17 1175.74 404.02 1172.07 406.52 M 92.09 411.26 C 96.36 413.45 100.49 416.15 105.02 417.73 C 151.80 417.78 198.59 417.71 245.38 417.77 C 242.17 415.66 239.22 413.09 235.81 411.32 C 187.91 411.18 140.00 411.28 92.09 411.26 M 244.46 411.22 C 247.23 413.25 250.08 415.19 252.91 417.14 C 254.07 418.09 255.66 417.63 257.03 417.77 C 303.53 417.74 350.03 417.71 396.53 417.78 C 394.61 415.52 392.56 413.39 390.48 411.30 C 341.80 411.17 293.13 411.33 244.46 411.22 M 397.15 411.35 C 399.14 413.57 401.27 415.65 403.39 417.75 C 451.45 417.74 499.51 417.74 547.57 417.75 C 546.61 415.55 545.59 413.39 544.50 411.27 C 495.38 411.30 446.26 411.14 397.15 411.35 M 549.94 411.31 C 550.98 413.47 552.06 415.63 553.17 417.77 C 601.61 417.70 650.06 417.79 698.51 417.72 C 698.49 415.55 698.48 413.39 698.45 411.23 C 648.95 411.32 599.44 411.17 549.94 411.31 M 703.26 411.26 C 703.25 413.41 703.25 415.58 703.26 417.74 C 751.67 417.74 800.09 417.77 848.50 417.73 C 849.59 415.61 850.61 413.45 851.59 411.28 C 802.14 411.23 752.70 411.27 703.26 411.26 M 856.91 411.26 C 855.91 413.45 854.86 415.61 853.78 417.76 C 901.79 417.69 949.80 417.83 997.81 417.68 C 1000.33 416.03 1002.22 413.48 1004.34 411.33 C 955.20 411.16 906.05 411.29 856.91 411.26 M 1011.17 411.23 C 1009.02 413.35 1007.03 415.62 1004.92 417.77 C 1052.52 417.72 1100.13 417.75 1147.73 417.75 C 1150.83 415.56 1153.97 413.42 1157.10 411.26 C 1108.45 411.23 1059.81 411.29 1011.17 411.23 M 1165.46 411.25 C 1162.31 413.38 1159.22 415.60 1156.08 417.76 C 1203.03 417.68 1249.99 417.85 1296.94 417.67 C 1301.29 415.85 1305.33 413.33 1309.59 411.30 C 1261.55 411.20 1213.51 411.28 1165.46 411.25 M 113.24 422.53 C 117.19 424.31 120.73 427.27 124.97 428.22 C 169.99 428.27 215.02 428.19 260.05 428.26 C 257.20 426.45 254.73 423.97 251.67 422.57 C 205.53 422.45 159.38 422.52 113.24 422.53 M 260.47 422.53 C 263.19 424.41 265.74 426.58 268.65 428.18 C 314.51 428.29 360.38 428.23 406.25 428.21 C 404.61 426.24 402.81 424.41 401.06 422.54 C 354.20 422.48 307.33 422.51 260.47 422.53 M 1000.32 422.51 C 998.63 424.46 996.85 426.34 995.07 428.20 C 1041.03 428.28 1086.99 428.21 1132.95 428.23 C 1135.63 426.36 1138.29 424.45 1140.94 422.51 C 1094.07 422.50 1047.19 422.51 1000.32 422.51 M 1149.45 422.51 C 1146.79 424.42 1144.12 426.31 1141.49 428.24 C 1186.75 428.19 1232.01 428.31 1277.27 428.18 C 1281.12 426.70 1284.56 424.33 1288.27 422.51 C 1242.00 422.51 1195.73 422.51 1149.45 422.51 M 407.71 422.49 C 409.52 424.39 411.29 426.34 413.10 428.26 C 459.59 428.20 506.07 428.27 552.55 428.22 C 551.68 426.30 550.79 424.39 549.87 422.49 C 502.49 422.52 455.10 422.52 407.71 422.49 M 555.31 422.50 C 556.16 424.43 557.05 426.36 558.02 428.25 C 604.84 428.22 651.66 428.25 698.48 428.23 C 698.48 426.32 698.48 424.41 698.48 422.51 C 650.76 422.51 603.03 422.52 555.31 422.50 M 703.25 428.23 C 750.06 428.15 796.89 428.42 843.70 428.09 C 844.48 426.21 845.32 424.35 846.19 422.51 C 798.56 422.50 750.92 422.53 703.28 422.50 C 703.26 424.40 703.24 426.31 703.25 428.23 M 848.93 428.23 C 895.34 428.21 941.75 428.30 988.15 428.18 C 990.34 426.65 991.84 424.30 993.81 422.49 C 946.41 422.53 899.02 422.51 851.63 422.50 C 850.70 424.39 849.80 426.31 848.93 428.23 M 132.88 433.06 C 136.62 434.72 139.94 437.61 143.95 438.48 C 187.40 438.49 230.85 438.52 274.30 438.46 C 271.80 436.66 269.29 434.86 266.83 433.01 C 222.18 433.03 177.53 432.93 132.88 433.06 M 275.21 433.01 C 277.69 434.88 280.22 436.71 282.76 438.50 C 327.12 438.46 371.48 438.53 415.84 438.47 C 414.21 436.60 412.57 434.76 410.86 432.98 C 365.64 433.03 320.43 432.98 275.21 433.01 M 417.45 432.99 C 419.16 434.84 420.86 436.69 422.59 438.52 C 467.47 438.44 512.35 438.53 557.23 438.47 C 556.41 436.64 555.58 434.82 554.76 433.01 C 508.99 432.99 463.22 433.01 417.45 432.99 M 560.16 433.00 C 561.04 434.81 561.87 436.64 562.69 438.49 C 607.95 438.48 653.22 438.50 698.49 438.48 C 698.48 436.65 698.48 434.83 698.49 433.00 C 652.38 432.99 606.27 433.01 560.16 433.00 M 703.00 433.00 C 703.00 434.83 702.99 436.65 703.00 438.49 C 748.27 438.51 793.53 438.46 838.80 438.51 C 839.61 436.66 840.45 434.83 841.31 433.00 C 795.21 433.00 749.10 433.00 703.00 433.00 M 844.18 438.50 C 889.08 438.49 933.97 438.47 978.86 438.51 C 980.59 436.72 982.26 434.87 983.93 433.02 C 938.19 432.97 892.45 433.03 846.71 432.99 C 845.83 434.80 844.98 436.64 844.18 438.50 M 985.67 438.46 C 1030.00 438.56 1074.33 438.42 1118.67 438.52 C 1121.25 436.75 1123.78 434.88 1126.32 433.02 C 1081.88 432.96 1037.45 433.03 993.01 432.99 C 989.37 432.34 987.97 436.47 985.67 438.46 M 1127.33 438.46 C 1170.83 438.52 1214.32 438.48 1257.82 438.49 C 1261.54 437.51 1264.69 434.91 1268.20 433.31 C 1265.82 432.73 1263.35 433.08 1260.96 433.00 C 1218.91 432.99 1176.85 433.01 1134.80 432.99 C 1132.31 434.82 1129.80 436.61 1127.33 438.46 Z" />
<path fill="#00fb22" opacity="1.00" d=" M 521.00 449.87 C 534.40 449.69 547.83 450.25 561.22 449.56 C 578.12 450.19 595.06 449.73 611.97 449.87 C 685.69 449.80 759.35 449.90 833.08 449.86 C 839.02 449.14 844.96 450.10 850.93 449.87 C 880.62 449.87 910.32 449.87 940.01 449.87 C 952.67 449.74 965.35 450.21 978.00 449.51 C 984.32 450.07 990.66 449.83 997.01 449.87 C 1027.67 449.87 1058.34 449.87 1089.01 449.87 C 1097.99 449.82 1106.98 450.10 1115.94 449.47 C 1126.96 450.21 1138.02 449.74 1149.07 449.87 C 1181.37 449.86 1213.67 449.90 1245.98 449.85 C 1251.65 449.31 1257.34 449.46 1263.02 449.87 C 1302.67 449.88 1342.33 449.86 1381.98 449.88 C 1387.97 449.65 1394.01 449.05 1400.00 449.83 L 1400.00 455.07 C 1397.07 454.13 1393.96 454.58 1390.97 454.51 C 1350.26 454.49 1309.55 454.55 1268.84 454.48 C 1272.59 456.18 1275.93 459.06 1279.98 459.97 C 1319.98 460.04 1359.99 459.98 1400.00 460.00 L 1400.00 464.77 C 1362.65 464.76 1325.29 464.77 1287.94 464.76 C 1291.96 466.53 1295.51 469.77 1299.92 470.48 C 1333.28 470.50 1366.64 470.48 1400.00 470.49 L 1400.00 475.25 C 1369.20 475.24 1338.41 475.28 1307.62 475.24 C 1311.81 477.37 1315.85 479.92 1320.24 481.65 C 1346.81 481.88 1373.41 481.68 1400.00 481.75 L 1400.00 486.51 C 1376.32 486.51 1352.64 486.51 1328.96 486.51 C 1333.15 488.81 1337.38 491.06 1341.57 493.36 C 1343.47 494.60 1345.80 494.18 1347.95 494.26 C 1365.30 494.20 1382.65 494.25 1400.00 494.23 L 1400.00 499.00 C 1384.03 499.03 1368.06 498.93 1352.09 499.06 C 1356.63 501.47 1361.14 503.94 1365.61 506.48 C 1366.93 507.26 1368.40 507.90 1370.00 507.76 C 1380.00 507.73 1390.00 507.75 1400.00 507.75 L 1400.00 512.51 C 1392.36 512.54 1384.72 512.44 1377.09 512.57 C 1382.39 515.37 1387.73 518.12 1393.05 520.91 C 1395.15 522.14 1397.66 521.67 1400.00 521.77 L 1400.00 530.24 C 1397.13 528.80 1394.46 526.27 1391.06 526.49 C 1336.78 526.54 1282.50 526.48 1228.21 526.52 C 1233.19 530.23 1238.25 533.82 1243.26 537.50 C 1295.50 537.48 1347.75 537.49 1400.00 537.49 L 1400.00 542.25 C 1349.97 542.25 1299.94 542.27 1249.91 542.25 C 1255.61 546.12 1261.00 550.49 1266.86 554.11 C 1311.23 554.40 1355.62 554.15 1400.00 554.23 L 1400.00 559.00 C 1357.78 559.01 1315.56 558.99 1273.34 559.01 C 1279.49 563.40 1285.58 567.89 1291.74 572.27 C 1292.93 573.28 1294.56 572.92 1296.02 573.02 C 1330.68 572.97 1365.34 573.02 1400.00 573.00 L 1400.00 577.76 C 1366.52 577.79 1333.04 577.72 1299.56 577.80 C 1306.62 582.71 1313.70 587.60 1320.78 592.50 C 1347.19 592.48 1373.59 592.49 1400.00 592.49 L 1400.00 597.25 C 1375.82 597.26 1351.64 597.25 1327.46 597.26 C 1335.59 603.19 1343.74 609.08 1351.87 615.00 C 1367.91 615.00 1383.96 615.00 1400.00 615.00 L 1400.00 619.76 C 1386.21 619.78 1372.43 619.73 1358.65 619.79 C 1367.86 626.48 1377.07 633.16 1386.35 639.77 C 1390.89 639.72 1395.44 639.75 1400.00 639.75 L 1400.00 644.51 C 1397.63 644.50 1395.27 644.50 1392.93 644.53 C 1395.27 646.22 1397.68 647.82 1400.00 649.58 L 1400.00 655.41 C 1394.74 651.80 1389.73 647.71 1384.20 644.59 C 1310.39 644.41 1236.58 644.55 1162.76 644.52 C 1169.38 651.47 1175.96 658.46 1182.55 665.45 C 1183.36 666.51 1184.61 666.92 1185.94 666.77 C 1257.29 666.72 1328.65 666.76 1400.00 666.75 L 1400.00 671.51 C 1329.40 671.50 1258.79 671.52 1188.19 671.50 C 1196.22 679.94 1204.19 688.44 1212.12 696.98 C 1274.74 697.03 1337.37 696.99 1400.00 697.00 L 1400.00 701.76 C 1338.91 701.77 1277.82 701.76 1216.73 701.77 C 1225.98 711.72 1235.22 721.70 1244.62 731.52 C 1296.41 731.45 1348.21 731.51 1400.00 731.49 L 1400.00 736.25 C 1349.65 736.25 1299.29 736.27 1248.94 736.24 C 1259.41 747.82 1270.16 759.14 1280.62 770.72 C 1320.41 770.78 1360.21 770.73 1400.00 770.75 L 1400.00 775.51 C 1361.74 775.50 1323.47 775.53 1285.21 775.50 C 1297.50 788.79 1310.01 801.88 1322.28 815.20 C 1348.18 815.28 1374.09 815.21 1400.00 815.23 L 1400.00 820.00 C 1375.59 820.01 1351.19 819.97 1326.79 820.02 C 1341.34 835.37 1355.70 850.90 1370.30 866.21 C 1380.20 866.27 1390.10 866.22 1400.00 866.23 L 1400.00 871.00 C 1391.57 871.00 1383.14 870.99 1374.71 871.01 C 1381.92 878.82 1389.16 886.61 1396.48 894.32 C 1393.73 893.93 1390.14 895.29 1388.21 892.70 C 1381.50 885.44 1374.75 878.23 1368.02 871.01 C 1258.26 871.01 1148.51 870.96 1038.75 871.04 C 1042.37 878.79 1045.98 886.54 1049.62 894.29 C 1047.79 894.24 1046.00 894.23 1044.21 894.20 C 1040.72 886.49 1036.93 878.92 1033.60 871.15 C 980.41 870.80 927.21 871.10 874.03 871.00 C 817.02 871.00 760.01 871.00 703.00 871.00 C 703.00 878.75 703.00 886.50 703.00 894.25 C 701.40 894.24 699.82 894.24 698.24 894.25 C 698.23 886.50 698.24 878.75 698.23 871.01 C 588.20 870.99 478.16 871.01 368.13 871.00 C 364.40 878.73 360.95 886.60 357.15 894.30 C 355.39 894.26 353.64 894.25 351.89 894.24 C 355.54 886.52 359.15 878.77 362.74 871.02 C 252.98 870.98 143.22 871.01 33.47 871.01 C 26.30 878.74 19.08 886.42 11.91 894.16 C 9.65 894.23 7.38 894.26 5.12 894.31 C 12.33 886.52 19.60 878.80 26.80 871.00 C 17.86 871.00 8.93 871.00 0.00 871.00 L 0.00 866.24 C 10.37 866.24 20.74 866.21 31.11 866.25 C 45.76 850.97 60.14 835.42 74.68 820.03 C 49.78 819.97 24.89 820.01 0.00 820.00 L 0.00 815.24 C 26.37 815.25 52.74 815.21 79.11 815.26 C 91.51 802.04 103.99 788.88 116.23 775.52 C 77.49 775.49 38.74 775.52 0.00 775.51 L 0.00 770.75 C 40.28 770.75 80.56 770.74 120.84 770.75 C 131.41 759.25 142.05 747.83 152.59 736.31 C 101.73 736.18 50.86 736.29 0.00 736.25 L 0.00 731.49 C 52.37 731.49 104.74 731.50 157.11 731.48 C 166.28 721.53 175.66 711.77 184.79 701.79 C 123.19 701.74 61.60 701.78 0.00 701.77 L 0.00 697.00 C 63.20 696.93 126.40 697.13 189.60 696.90 C 197.31 688.27 205.45 680.03 213.27 671.50 C 142.18 671.53 71.09 671.50 0.00 671.51 L 0.00 666.75 C 72.56 666.76 145.12 666.72 217.69 666.77 C 224.80 659.42 231.72 651.87 238.81 644.50 C 164.89 644.61 90.96 644.33 17.05 644.64 C 11.21 648.33 5.65 652.52 0.00 656.52 L 0.00 650.56 C 2.81 648.50 5.71 646.57 8.51 644.51 C 5.67 644.50 2.84 644.50 0.00 644.51 L 0.00 639.75 C 5.14 639.56 10.35 640.12 15.46 639.50 C 24.74 633.12 33.76 626.34 42.93 619.79 C 28.62 619.73 14.31 619.78 0.00 619.77 L 0.00 615.00 C 16.58 614.87 33.19 615.25 49.75 614.81 C 57.97 609.14 65.95 603.10 74.07 597.27 C 49.38 597.24 24.69 597.26 0.00 597.25 L 0.00 592.49 C 26.92 592.49 53.84 592.48 80.76 592.49 C 87.87 587.60 94.97 582.69 102.05 577.75 C 68.03 577.78 34.02 577.76 0.00 577.77 L 0.00 573.00 C 36.25 572.99 72.49 573.01 108.74 572.99 C 115.16 568.31 121.64 563.70 128.07 559.01 C 85.38 558.99 42.69 559.01 0.00 559.00 L 0.00 554.24 C 44.94 554.23 89.88 554.24 134.82 554.23 C 140.39 550.24 146.00 546.30 151.54 542.26 C 101.03 542.25 50.51 542.26 0.00 542.25 L 0.00 537.49 C 52.74 537.49 105.48 537.49 158.22 537.49 C 163.27 533.87 168.27 530.19 173.29 526.53 C 119.17 526.46 65.06 526.56 10.95 526.48 C 6.78 526.19 3.60 529.48 0.01 531.06 L 0.00 530.04 L 0.00 521.74 C 2.89 521.58 6.07 522.38 8.71 520.85 C 14.00 518.04 19.33 515.32 24.61 512.49 C 16.41 512.53 8.20 512.50 0.00 512.51 L 0.00 507.75 C 11.19 507.62 22.41 507.98 33.58 507.58 C 38.97 505.00 44.09 501.87 49.34 499.02 C 32.90 498.98 16.45 499.01 0.00 499.00 L 0.00 494.24 C 19.36 494.15 38.74 494.39 58.10 494.12 C 63.12 492.01 67.76 489.05 72.58 486.50 C 48.39 486.52 24.19 486.51 0.00 486.51 L 0.00 481.75 C 26.99 481.69 53.98 481.85 80.97 481.67 C 85.53 480.22 89.55 477.33 93.91 475.32 C 62.60 475.17 31.30 475.30 0.00 475.25 L 0.00 470.49 C 33.00 470.51 65.99 470.45 98.99 470.52 C 104.54 471.16 108.79 466.87 113.56 464.79 C 75.71 464.74 37.85 464.78 0.00 464.77 L 0.00 460.00 C 40.37 459.99 80.73 460.02 121.10 459.98 C 125.36 459.42 128.74 456.23 132.59 454.49 C 90.07 454.52 47.55 454.52 5.04 454.49 C 3.24 454.38 1.60 455.13 0.00 455.84 L 0.00 449.93 C 8.33 448.80 16.69 450.12 25.04 449.87 C 61.01 449.87 96.99 449.87 132.96 449.88 C 140.29 450.09 147.61 448.94 154.93 449.83 C 177.95 449.94 200.96 449.84 223.98 449.87 C 244.98 449.69 266.00 450.27 286.99 449.50 C 302.31 450.31 317.68 449.67 333.03 449.87 C 361.35 449.85 389.68 449.91 418.01 449.84 C 422.35 449.37 426.69 449.53 431.04 449.87 C 461.02 449.88 491.01 449.87 521.00 449.87 M 985.67 454.54 C 987.22 456.26 988.67 458.08 990.35 459.70 C 991.78 460.31 993.46 459.87 995.00 460.01 C 1038.77 459.97 1082.55 460.03 1126.32 459.98 C 1123.78 458.12 1121.25 456.25 1118.67 454.48 C 1074.33 454.58 1030.00 454.44 985.67 454.54 M 1127.34 454.54 C 1129.80 456.39 1132.32 458.18 1134.81 460.01 C 1179.41 459.96 1224.01 460.06 1268.62 459.96 C 1265.01 458.22 1261.71 455.62 1257.88 454.52 C 1214.37 454.52 1170.85 454.48 1127.34 454.54 M 132.88 459.94 C 177.53 460.08 222.17 459.96 266.82 460.00 C 269.29 458.14 271.79 456.33 274.30 454.54 C 230.87 454.48 187.43 454.51 143.99 454.52 C 139.96 455.35 136.64 458.28 132.88 459.94 M 275.21 459.99 C 320.43 460.02 365.64 459.97 410.86 460.02 C 412.57 458.23 414.21 456.39 415.84 454.53 C 371.48 454.47 327.13 454.55 282.77 454.49 C 280.22 456.28 277.70 458.11 275.21 459.99 M 417.45 460.01 C 463.22 459.99 508.99 460.01 554.76 459.99 C 555.58 458.17 556.41 456.35 557.23 454.53 C 512.36 454.46 467.48 454.57 422.61 454.47 C 420.87 456.29 419.16 458.15 417.45 460.01 M 562.69 454.50 C 561.87 456.35 561.04 458.18 560.16 460.00 C 606.27 459.99 652.38 460.00 698.49 460.00 C 698.48 458.17 698.48 456.34 698.49 454.52 C 653.22 454.50 607.95 454.52 562.69 454.50 M 703.00 454.51 C 702.99 456.33 703.00 458.16 703.00 460.00 C 749.10 460.00 795.21 460.00 841.31 460.00 C 840.45 458.17 839.62 456.33 838.80 454.49 C 793.54 454.54 748.27 454.49 703.00 454.51 M 844.18 454.50 C 844.98 456.35 845.83 458.20 846.73 460.02 C 892.46 459.96 938.20 460.04 983.93 459.98 C 982.26 458.12 980.59 456.28 978.86 454.49 C 933.97 454.53 889.08 454.51 844.18 454.50 M 113.25 470.47 C 158.52 470.54 203.80 470.44 249.07 470.52 C 253.60 471.10 256.43 466.68 260.05 464.74 C 215.01 464.81 169.98 464.73 124.95 464.78 C 120.73 465.74 117.18 468.69 113.25 470.47 M 260.47 470.47 C 307.33 470.49 354.19 470.51 401.05 470.46 C 402.80 468.59 404.60 466.75 406.25 464.79 C 360.39 464.77 314.52 464.71 268.66 464.81 C 265.75 466.41 263.19 468.59 260.47 470.47 M 407.71 470.51 C 455.10 470.48 502.48 470.48 549.87 470.51 C 550.79 468.61 551.68 466.70 552.55 464.78 C 506.07 464.73 459.59 464.80 413.10 464.74 C 411.29 466.65 409.52 468.60 407.71 470.51 M 558.02 464.75 C 557.05 466.64 556.16 468.56 555.31 470.50 C 603.03 470.48 650.76 470.50 698.48 470.49 C 698.48 468.58 698.48 466.67 698.48 464.77 C 651.66 464.75 604.84 464.78 558.02 464.75 M 703.24 464.78 C 703.23 466.69 703.26 468.62 703.34 470.54 C 750.89 470.45 798.45 470.46 846.00 470.54 C 845.38 468.47 844.46 466.52 843.34 464.70 C 796.64 464.86 749.94 464.70 703.24 464.78 M 848.93 464.77 C 849.80 466.69 850.70 468.61 851.64 470.51 C 899.03 470.48 946.42 470.47 993.81 470.51 C 991.94 468.57 990.17 466.56 988.24 464.70 C 941.80 464.85 895.37 464.71 848.93 464.77 M 995.07 464.80 C 996.86 466.66 998.63 468.55 1000.34 470.50 C 1047.21 470.48 1094.07 470.50 1140.94 470.49 C 1138.29 468.55 1135.63 466.65 1132.96 464.77 C 1086.99 464.78 1041.03 464.72 995.07 464.80 M 1141.49 464.76 C 1144.12 466.69 1146.79 468.57 1149.44 470.49 C 1195.72 470.49 1241.99 470.49 1288.27 470.49 C 1284.56 468.67 1281.12 466.31 1277.28 464.82 C 1232.02 464.69 1186.75 464.81 1141.49 464.76 M 91.84 481.78 C 139.83 481.66 187.83 481.85 235.81 481.68 C 239.22 479.90 242.17 477.33 245.39 475.24 C 198.62 475.29 151.85 475.22 105.08 475.27 C 100.43 476.78 96.29 479.72 91.84 481.78 M 252.92 475.85 C 250.08 477.80 247.24 479.74 244.46 481.78 C 293.14 481.66 341.82 481.84 390.49 481.69 C 392.56 479.59 394.61 477.47 396.53 475.22 C 350.01 475.29 303.49 475.26 256.98 475.23 C 255.63 475.34 254.06 474.91 252.92 475.85 M 403.39 475.25 C 401.27 477.35 399.14 479.43 397.14 481.65 C 446.26 481.87 495.38 481.69 544.49 481.73 C 545.58 479.61 546.61 477.45 547.58 475.27 C 499.52 475.23 451.45 475.27 403.39 475.25 M 553.17 475.23 C 552.06 477.37 550.98 479.52 549.94 481.69 C 599.46 481.79 648.99 481.75 698.51 481.72 C 698.49 479.55 698.48 477.40 698.48 475.25 C 650.04 475.25 601.60 475.28 553.17 475.23 M 703.26 475.26 C 703.25 477.41 703.25 479.58 703.26 481.74 C 752.70 481.73 802.14 481.77 851.59 481.72 C 850.61 479.53 849.58 477.39 848.49 475.27 C 800.08 475.24 751.67 475.26 703.26 475.26 M 853.78 475.24 C 854.86 477.38 855.92 479.54 856.91 481.74 C 906.05 481.71 955.20 481.84 1004.35 481.67 C 1002.25 479.50 1000.34 477.07 997.89 475.31 C 949.85 475.17 901.81 475.31 853.78 475.24 M 1004.92 475.23 C 1007.04 477.38 1009.03 479.66 1011.19 481.78 C 1059.82 481.70 1108.46 481.77 1157.10 481.74 C 1153.97 479.57 1150.83 477.43 1147.73 475.24 C 1100.12 475.25 1052.52 475.28 1004.92 475.23 M 1156.08 475.24 C 1159.22 477.40 1162.31 479.62 1165.47 481.75 C 1213.52 481.75 1261.58 481.72 1309.63 481.76 C 1305.42 479.65 1301.36 477.25 1297.06 475.35 C 1250.08 475.12 1203.07 475.34 1156.08 475.24 M 1015.42 486.51 C 1017.98 488.95 1020.16 491.78 1022.79 494.17 C 1073.21 494.30 1123.64 494.23 1174.06 494.21 C 1170.86 491.29 1167.10 489.06 1163.64 486.48 C 1114.23 486.55 1064.83 486.49 1015.42 486.51 M 1172.07 486.48 C 1175.75 488.98 1179.20 491.85 1183.01 494.16 C 1232.93 494.33 1282.85 494.19 1332.76 494.23 C 1327.78 491.74 1323.08 488.44 1317.88 486.54 C 1269.28 486.45 1220.67 486.58 1172.07 486.48 M 68.67 494.23 C 118.55 494.21 168.43 494.29 218.31 494.19 C 222.18 491.97 225.58 489.00 229.31 486.54 C 180.54 486.53 131.76 486.41 83.00 486.60 C 78.12 488.93 73.46 491.71 68.67 494.23 M 227.05 494.21 C 277.60 494.25 328.16 494.26 378.71 494.21 C 381.14 491.70 383.49 489.12 385.85 486.54 C 336.49 486.46 287.13 486.53 237.77 486.51 C 234.19 489.07 230.63 491.65 227.05 494.21 M 385.49 494.22 C 436.59 494.23 487.68 494.27 538.77 494.20 C 539.91 491.62 541.10 489.06 542.32 486.51 C 492.44 486.48 442.55 486.55 392.66 486.48 C 390.20 488.99 387.81 491.58 385.49 494.22 M 544.24 494.27 C 595.65 494.19 647.06 494.26 698.48 494.23 C 698.49 491.65 698.49 489.08 698.48 486.51 C 648.24 486.50 598.00 486.52 547.75 486.50 C 546.51 489.06 545.20 491.59 544.24 494.27 M 703.24 486.54 C 703.26 489.08 703.26 491.63 703.23 494.18 C 754.63 494.32 806.03 494.19 857.43 494.24 C 856.25 491.66 855.05 489.09 853.89 486.51 C 803.67 486.53 753.45 486.47 703.24 486.54 M 859.17 486.50 C 860.40 489.06 861.59 491.65 862.77 494.24 C 913.85 494.22 964.93 494.24 1016.01 494.23 C 1013.73 491.55 1011.29 489.02 1008.86 486.49 C 958.96 486.53 909.07 486.51 859.17 486.50 M 43.91 507.71 C 95.86 507.75 147.82 507.81 199.77 507.68 C 203.96 505.07 207.78 501.89 211.79 499.01 C 161.15 499.04 110.49 498.91 59.85 499.07 C 54.40 501.65 49.23 504.84 43.91 507.71 M 220.18 499.00 C 216.26 501.94 212.29 504.82 208.34 507.72 C 261.09 507.73 313.84 507.83 366.58 507.67 C 369.03 504.67 371.71 501.88 374.29 499.00 C 322.92 499.00 271.55 499.00 220.18 499.00 M 372.94 507.79 C 426.13 507.68 479.33 507.80 532.52 507.73 C 533.85 504.83 535.20 501.94 536.46 499.02 C 484.58 498.98 432.70 499.00 380.82 499.02 C 378.30 502.04 375.58 504.88 372.94 507.79 M 537.95 507.77 C 591.46 507.72 644.97 507.76 698.48 507.75 C 698.49 504.83 698.49 501.91 698.49 499.00 C 646.28 499.00 594.08 499.00 541.88 499.00 C 540.57 501.92 539.21 504.82 537.95 507.77 M 703.25 499.01 C 703.25 501.92 703.25 504.83 703.26 507.74 C 756.70 507.71 810.15 507.81 863.60 507.69 C 862.29 504.80 860.98 501.91 859.69 499.02 C 807.54 498.98 755.40 499.00 703.25 499.01 M 864.95 499.02 C 866.35 501.91 867.63 504.87 869.04 507.77 C 922.14 507.72 975.24 507.76 1028.34 507.74 C 1025.67 504.83 1023.25 501.52 1020.21 499.06 C 968.46 498.93 916.70 499.02 864.95 499.02 M 1027.20 499.01 C 1029.82 501.96 1032.44 504.93 1035.18 507.78 C 1087.80 507.69 1140.43 507.78 1193.06 507.73 C 1189.08 504.82 1185.12 501.89 1181.14 499.00 C 1129.83 499.01 1078.51 498.98 1027.20 499.01 M 1189.58 499.02 C 1193.49 501.96 1197.50 504.78 1201.41 507.73 C 1253.47 507.78 1305.54 507.71 1357.61 507.77 C 1352.07 504.94 1346.82 501.27 1341.08 499.03 C 1290.58 498.97 1240.08 499.00 1189.58 499.02 M 32.17 513.89 C 27.15 516.54 22.14 519.21 17.06 521.75 C 71.30 521.69 125.54 521.83 179.78 521.69 C 184.44 518.91 188.77 515.57 193.26 512.50 C 140.88 512.52 88.51 512.50 36.13 512.51 C 34.69 512.47 33.43 513.29 32.17 513.89 M 1039.65 512.56 C 1042.44 515.72 1045.54 518.60 1048.35 521.76 C 1103.27 521.73 1158.18 521.76 1213.10 521.74 C 1208.56 518.75 1204.28 515.36 1199.63 512.57 C 1146.31 512.46 1092.97 512.48 1039.65 512.56 M 1208.19 512.51 C 1212.61 515.59 1217.06 518.62 1221.46 521.74 C 1275.74 521.73 1330.01 521.78 1384.29 521.72 C 1378.12 518.78 1372.31 514.94 1365.95 512.55 C 1313.36 512.46 1260.78 512.54 1208.19 512.51 M 188.47 521.78 C 241.67 521.70 294.88 521.76 348.08 521.75 C 349.80 521.63 351.66 522.06 353.31 521.47 C 356.10 518.44 359.10 515.61 361.79 512.49 C 308.49 512.58 255.20 512.41 201.91 512.57 C 197.27 515.37 192.89 518.63 188.47 521.78 M 359.69 521.76 C 415.08 521.73 470.47 521.73 525.87 521.77 C 527.31 518.66 528.80 515.58 530.34 512.52 C 476.45 512.49 422.56 512.53 368.67 512.50 C 365.53 515.44 362.71 518.70 359.69 521.76 M 531.28 521.76 C 587.04 521.65 642.81 521.91 698.57 521.63 C 698.46 518.59 698.47 515.55 698.49 512.52 C 644.25 512.50 590.01 512.52 535.77 512.51 C 534.18 515.54 532.74 518.66 531.28 521.76 M 703.00 512.51 C 702.99 515.59 703.00 518.67 703.01 521.75 C 758.74 521.75 814.47 521.72 870.20 521.76 C 868.77 518.66 867.31 515.57 865.77 512.53 C 811.51 512.49 757.26 512.52 703.00 512.51 M 871.18 512.50 C 872.59 515.60 874.08 518.67 875.60 521.73 C 931.02 521.76 986.43 521.74 1041.85 521.74 C 1038.74 518.77 1035.91 515.51 1032.85 512.49 C 978.96 512.53 925.07 512.51 871.18 512.50 M 179.88 527.81 C 175.50 531.09 171.03 534.24 166.64 537.52 C 223.97 537.43 281.31 537.56 338.64 537.45 C 341.83 533.70 345.32 530.22 348.53 526.49 C 293.32 526.54 238.10 526.49 182.88 526.52 C 181.68 526.34 180.77 527.17 179.88 527.81 M 345.19 537.51 C 403.02 537.48 460.85 537.48 518.68 537.51 C 520.35 533.84 522.05 530.18 523.69 526.50 C 467.52 526.56 411.34 526.42 355.17 526.58 C 351.95 530.31 348.57 533.92 345.19 537.51 M 529.09 526.50 C 527.34 530.14 525.73 533.83 524.06 537.51 C 582.20 537.47 640.34 537.51 698.48 537.48 C 698.49 533.83 698.49 530.17 698.48 526.52 C 642.02 526.50 585.55 526.52 529.09 526.50 M 703.27 537.50 C 761.33 537.47 819.39 537.51 877.45 537.48 C 875.89 533.83 874.13 530.28 872.64 526.61 C 816.19 526.36 759.74 526.61 703.30 526.49 C 703.22 530.15 703.24 533.82 703.27 537.50 M 882.87 537.49 C 940.67 537.50 998.48 537.47 1056.28 537.51 C 1052.86 533.87 1049.54 530.13 1046.12 526.49 C 990.09 526.48 934.07 526.61 878.05 526.42 C 879.18 530.29 881.25 533.81 882.87 537.49 M 1052.97 526.49 C 1056.23 530.19 1059.62 533.80 1062.93 537.47 C 1120.26 537.53 1177.59 537.45 1234.92 537.51 C 1229.90 533.80 1224.85 530.12 1219.78 526.50 C 1164.17 526.51 1108.57 526.53 1052.97 526.49 M 160.03 542.34 C 154.35 546.10 148.92 550.28 143.34 554.20 C 203.19 554.29 263.05 554.20 322.90 554.25 C 326.66 550.28 330.42 546.31 334.05 542.23 C 276.05 542.34 218.03 542.13 160.03 542.34 M 340.60 542.28 C 337.02 546.34 333.23 550.22 329.55 554.19 C 389.96 554.28 450.36 554.23 510.77 554.22 C 512.62 550.24 514.58 546.30 516.33 542.27 C 457.75 542.25 399.17 542.23 340.60 542.28 M 521.59 542.37 C 519.90 546.37 517.91 550.24 516.19 554.22 C 576.87 554.25 637.55 554.24 698.23 554.23 C 698.24 550.23 698.24 546.24 698.22 542.25 C 639.35 542.33 580.46 542.09 521.59 542.37 M 703.26 542.26 C 703.25 546.24 703.25 550.23 703.26 554.22 C 763.94 554.23 824.63 554.26 885.31 554.21 C 883.51 550.19 881.61 546.22 879.74 542.24 C 820.91 542.27 762.09 542.24 703.26 542.26 M 885.04 542.22 C 886.88 546.24 888.75 550.25 890.64 554.26 C 951.02 554.21 1011.39 554.25 1071.77 554.24 C 1068.13 550.17 1064.37 546.21 1060.63 542.24 C 1002.10 542.26 943.57 542.28 885.04 542.22 M 1067.46 542.23 C 1071.18 546.28 1074.88 550.37 1078.75 554.29 C 1138.60 554.16 1198.46 554.28 1258.31 554.23 C 1252.74 550.23 1247.15 546.24 1241.57 542.26 C 1183.53 542.22 1125.49 542.30 1067.46 542.23 M 136.43 559.03 C 130.09 563.78 123.57 568.28 117.21 572.99 C 180.03 572.99 242.86 573.04 305.69 572.96 C 309.89 568.23 314.21 563.59 318.56 558.99 C 257.85 559.03 197.14 558.96 136.43 559.03 M 325.08 559.02 C 320.88 563.78 316.50 568.37 312.18 573.01 C 375.49 572.99 438.81 573.00 502.12 573.00 C 504.31 568.36 506.47 563.70 508.60 559.02 C 447.42 558.99 386.25 558.99 325.08 559.02 M 514.01 559.01 C 511.91 563.70 509.67 568.32 507.54 573.00 C 571.19 573.00 634.84 573.00 698.49 573.00 C 698.49 568.33 698.49 563.67 698.49 559.00 C 636.99 559.00 575.50 558.99 514.01 559.01 M 703.25 559.01 C 703.25 563.67 703.26 568.33 703.25 572.99 C 766.86 573.01 830.47 572.99 894.09 573.00 C 891.93 568.34 889.69 563.72 887.64 559.01 C 826.18 559.00 764.71 558.99 703.25 559.01 M 892.91 559.00 C 895.06 563.66 897.28 568.29 899.37 572.99 C 962.68 573.01 1025.99 572.99 1089.30 573.00 C 1085.23 568.62 1081.17 564.22 1077.16 559.79 C 1076.18 558.48 1074.33 559.17 1072.99 558.98 C 1012.97 559.02 952.94 558.99 892.91 559.00 M 1083.05 559.03 C 1087.43 563.65 1091.67 568.39 1096.06 573.00 C 1158.83 572.97 1221.60 573.04 1284.38 572.97 C 1277.92 568.30 1271.44 563.66 1264.98 559.01 C 1204.34 559.01 1143.70 558.97 1083.05 559.03 M 89.20 592.47 C 155.05 592.55 220.90 592.42 286.75 592.53 C 291.66 587.74 296.29 582.68 301.06 577.75 C 237.60 577.81 174.14 577.69 110.69 577.81 C 103.35 582.40 96.38 587.62 89.20 592.47 M 293.64 592.44 C 360.04 592.58 426.44 592.42 492.84 592.52 C 495.22 587.59 497.51 582.63 499.99 577.75 C 435.91 577.76 371.83 577.79 307.76 577.74 C 303.08 582.67 298.25 587.45 293.64 592.44 M 505.22 577.79 C 502.93 582.72 500.55 587.61 498.15 592.49 C 564.93 592.49 631.70 592.49 698.48 592.49 C 698.49 587.58 698.50 582.67 698.47 577.76 C 634.05 577.78 569.64 577.73 505.22 577.79 M 703.25 577.78 C 703.27 582.69 703.21 587.60 703.30 592.51 C 769.97 592.46 836.64 592.51 903.32 592.49 C 900.98 587.55 898.70 582.58 896.18 577.74 C 831.87 577.80 767.56 577.74 703.25 577.78 M 901.55 577.76 C 903.97 582.66 906.26 587.62 908.67 592.52 C 975.04 592.46 1041.42 592.48 1107.79 592.51 C 1103.23 587.51 1098.44 582.72 1093.76 577.84 C 1029.69 577.67 965.62 577.81 901.55 577.76 M 1100.44 577.78 C 1105.23 582.64 1109.94 587.59 1114.67 592.52 C 1180.58 592.46 1246.49 592.49 1312.39 592.51 C 1305.78 587.86 1299.10 583.31 1292.46 578.71 C 1290.96 577.30 1288.85 577.85 1287.03 577.75 C 1224.83 577.79 1162.64 577.74 1100.44 577.78 M 82.43 597.26 C 74.29 603.15 66.19 609.10 58.02 614.95 C 127.39 615.07 196.77 614.96 266.15 615.01 C 271.51 609.05 277.04 603.25 282.35 597.26 C 215.71 597.25 149.07 597.25 82.43 597.26 M 289.20 597.22 C 283.72 603.09 278.31 609.04 272.87 614.96 C 342.70 615.06 412.53 614.96 482.36 615.01 C 485.18 609.13 487.86 603.18 490.56 597.25 C 423.44 597.23 356.32 597.30 289.20 597.22 M 496.04 597.24 C 493.21 603.11 490.58 609.09 487.81 615.00 C 558.03 615.00 628.26 615.00 698.49 615.00 C 698.48 609.08 698.50 603.16 698.48 597.25 C 631.00 597.25 563.52 597.28 496.04 597.24 M 703.26 597.26 C 703.24 603.16 703.26 609.07 703.25 614.99 C 773.40 615.01 843.56 615.00 913.71 615.00 C 911.04 609.06 908.26 603.17 905.60 597.24 C 838.15 597.28 770.70 597.24 703.26 597.26 M 910.95 597.23 C 913.63 603.18 916.30 609.13 919.14 615.00 C 989.03 615.00 1058.93 614.99 1128.83 615.01 C 1123.32 609.19 1117.92 603.27 1112.56 597.32 C 1045.36 597.16 978.15 597.32 910.95 597.23 M 1119.08 597.29 C 1124.51 603.16 1129.93 609.05 1135.30 614.98 C 1204.67 615.00 1274.04 615.03 1343.41 614.96 C 1336.04 609.53 1328.59 604.22 1321.22 598.80 C 1320.21 598.21 1319.33 597.11 1318.07 597.26 C 1251.74 597.27 1185.41 597.21 1119.08 597.29 M 23.64 639.73 C 95.79 639.77 167.94 639.71 240.09 639.77 C 241.34 639.61 243.00 640.16 243.88 638.97 C 249.71 632.53 255.73 626.26 261.50 619.77 C 191.42 619.75 121.33 619.78 51.25 619.76 C 42.07 626.46 32.80 633.03 23.64 639.73 M 268.23 619.81 C 262.15 626.45 256.04 633.06 249.88 639.63 C 323.56 639.90 397.25 639.66 470.93 639.75 C 474.07 633.11 477.05 626.40 480.20 619.77 C 409.55 619.79 338.89 619.71 268.23 619.81 M 476.34 639.73 C 550.39 639.77 624.43 639.73 698.48 639.75 C 698.50 633.09 698.49 626.43 698.48 619.77 C 627.53 619.74 556.58 619.79 485.63 619.75 C 482.44 626.37 479.45 633.08 476.34 639.73 M 703.22 619.83 C 703.29 626.47 703.23 633.10 703.26 639.74 C 777.24 639.76 851.21 639.72 925.19 639.77 C 922.15 633.09 919.07 626.43 916.00 619.76 C 845.07 619.81 774.15 619.68 703.22 619.83 M 921.29 619.75 C 924.41 626.40 927.47 633.07 930.54 639.75 C 1004.21 639.71 1077.89 639.81 1151.56 639.69 C 1145.48 632.98 1139.32 626.34 1133.11 619.74 C 1062.50 619.78 991.90 619.77 921.29 619.75 M 1139.88 619.78 C 1146.02 626.46 1152.16 633.14 1158.37 639.76 C 1231.54 639.72 1304.72 639.77 1377.89 639.73 C 1368.54 633.15 1359.46 626.13 1349.94 619.83 C 1279.93 619.69 1209.90 619.79 1139.88 619.78 M 224.46 666.78 C 302.45 666.62 380.44 666.93 458.42 666.62 C 461.65 659.16 465.39 651.93 468.70 644.51 C 394.19 644.56 319.69 644.43 245.19 644.57 C 238.49 652.16 231.24 659.25 224.46 666.78 M 474.14 644.49 C 470.56 651.87 467.13 659.33 463.58 666.73 C 541.88 666.77 620.18 666.73 698.48 666.75 C 698.50 659.34 698.49 651.92 698.48 644.52 C 623.70 644.49 548.92 644.54 474.14 644.49 M 703.25 644.52 C 703.26 651.93 703.25 659.33 703.26 666.74 C 781.49 666.73 859.71 666.78 937.94 666.71 C 934.32 659.35 930.97 651.86 927.37 644.50 C 852.66 644.53 777.96 644.49 703.25 644.52 M 932.81 644.52 C 936.19 651.98 939.80 659.33 943.25 666.75 C 1021.19 666.76 1099.13 666.70 1177.06 666.79 C 1170.14 659.29 1163.06 651.94 1156.09 644.49 C 1081.66 644.54 1007.23 644.48 932.81 644.52 M 195.93 696.93 C 278.62 697.09 361.31 696.95 444.01 697.00 C 447.98 688.50 452.03 680.03 455.95 671.50 C 377.26 671.52 298.57 671.52 219.88 671.49 C 211.88 679.96 204.00 688.54 195.93 696.93 M 461.30 671.55 C 457.42 680.07 453.38 688.52 449.41 697.00 C 532.44 697.00 615.46 697.00 698.49 697.00 C 698.49 688.50 698.50 680.01 698.48 671.52 C 619.42 671.53 540.36 671.46 461.30 671.55 M 703.25 671.52 C 703.26 680.01 703.26 688.50 703.25 696.99 C 786.21 696.99 869.16 697.03 952.12 696.97 C 948.13 688.48 944.20 679.95 940.12 671.51 C 861.16 671.52 782.21 671.49 703.25 671.52 M 945.55 671.51 C 949.40 680.02 953.56 688.39 957.37 696.92 C 1040.10 697.11 1122.84 696.94 1205.57 697.00 C 1197.39 688.63 1189.66 679.75 1181.36 671.54 C 1102.76 671.47 1024.15 671.53 945.55 671.51 M 163.72 731.51 C 251.77 731.48 339.82 731.48 427.87 731.51 C 432.57 721.62 437.14 711.67 441.82 701.77 C 358.46 701.72 275.11 701.83 191.76 701.72 C 182.23 711.47 173.07 721.58 163.72 731.51 M 447.23 701.79 C 442.54 711.67 437.92 721.58 433.31 731.50 C 521.70 731.48 610.09 731.50 698.48 731.48 C 698.49 721.58 698.49 711.68 698.48 701.77 C 614.73 701.77 530.98 701.74 447.23 701.79 M 703.26 701.77 C 703.27 711.68 703.22 721.59 703.28 731.50 C 791.60 731.46 879.92 731.52 968.24 731.47 C 963.63 721.55 958.97 711.67 954.36 701.75 C 870.66 701.79 786.96 701.74 703.26 701.77 M 959.69 701.79 C 964.19 711.71 968.98 721.50 973.45 731.44 C 1061.57 731.56 1149.70 731.44 1237.82 731.50 C 1228.44 721.65 1219.21 711.66 1209.90 701.75 C 1126.50 701.80 1043.09 701.72 959.69 701.79 M 159.35 736.25 C 148.66 747.70 138.11 759.29 127.45 770.77 C 221.55 770.72 315.65 770.75 409.75 770.76 C 415.11 759.27 420.38 747.73 425.71 736.23 C 336.92 736.28 248.14 736.25 159.35 736.25 M 431.04 736.25 C 425.71 747.73 420.45 759.23 415.15 770.72 C 509.59 770.79 604.03 770.71 698.47 770.76 C 698.52 759.26 698.46 747.77 698.50 736.28 C 609.35 736.22 520.19 736.27 431.04 736.25 M 703.26 736.26 C 703.25 747.75 703.25 759.25 703.26 770.74 C 797.66 770.76 892.07 770.73 986.47 770.76 C 981.09 759.29 975.85 747.77 970.54 736.28 C 881.44 736.23 792.35 736.27 703.26 736.26 M 975.88 736.29 C 981.10 747.75 986.54 759.12 991.62 770.64 C 1085.76 770.91 1179.91 770.61 1274.05 770.80 C 1263.74 759.47 1253.30 748.26 1242.93 737.01 C 1242.00 735.78 1240.28 736.40 1239.03 736.23 C 1151.31 736.31 1063.59 736.20 975.88 736.29 M 85.81 815.21 C 186.75 815.36 287.71 815.05 388.65 815.36 C 395.23 802.24 401.18 788.79 407.51 775.54 C 312.72 775.46 217.93 775.55 123.14 775.50 C 110.58 788.62 98.30 802.02 85.81 815.21 M 394.30 815.25 C 495.69 815.22 597.09 815.25 698.48 815.23 C 698.50 801.99 698.49 788.75 698.48 775.52 C 603.29 775.50 508.10 775.51 412.90 775.51 C 406.72 788.77 400.48 801.99 394.30 815.25 M 703.33 815.27 C 804.62 815.18 905.91 815.27 1007.21 815.22 C 1001.13 801.95 994.78 788.80 988.68 775.54 C 893.55 775.46 798.41 775.55 703.28 775.50 C 703.27 788.75 703.17 802.01 703.33 815.27 M 993.95 775.54 C 1000.26 788.75 1006.33 802.07 1012.67 815.27 C 1113.71 815.20 1214.75 815.24 1315.80 815.25 C 1303.29 802.03 1290.94 788.67 1278.44 775.46 C 1183.61 775.60 1088.78 775.43 993.95 775.54 M 81.34 820.00 C 66.91 835.43 52.33 850.74 37.97 866.25 C 146.98 866.22 255.99 866.25 365.00 866.23 C 372.19 850.79 379.44 835.39 386.72 820.00 C 284.92 820.00 183.13 820.00 81.34 820.00 M 392.14 820.00 C 384.78 835.35 377.65 850.81 370.38 866.20 C 479.75 866.27 589.11 866.23 698.48 866.23 C 698.50 850.82 698.49 835.41 698.49 820.00 C 596.37 820.00 494.26 820.01 392.14 820.00 M 703.25 820.01 C 703.26 835.41 703.26 850.81 703.25 866.21 C 812.56 866.27 921.88 866.22 1031.20 866.23 C 1024.04 850.85 1016.63 835.58 1009.65 820.12 C 907.52 819.84 805.38 820.07 703.25 820.01 M 1014.80 820.00 C 1021.95 835.37 1029.36 850.63 1036.33 866.08 C 1038.89 866.28 1041.47 866.25 1044.06 866.24 C 1150.54 866.23 1257.03 866.24 1363.51 866.23 C 1349.15 850.73 1334.58 835.41 1320.13 819.99 C 1218.35 820.02 1116.58 819.99 1014.80 820.00 Z" />
</g>
</svg>
